<?xml version="1.0" encoding="UTF-8" standalone="no"?><svg xmlns="http://www.w3.org/2000/svg" xmlns:xlink="http://www.w3.org/1999/xlink" contentStyleType="text/css" height="1375px" preserveAspectRatio="none" style="width:3104px;height:1375px;background:#FDF5E6;" version="1.1" viewBox="0 0 3104 1375" width="3104px" zoomAndPan="magnify"><defs/><g><!--MD5=[eb3ee92a8381fbf23043ab7f94c29bda]
cluster org.renaultleat.network--><g id="cluster_org.renaultleat.network"><path d="M8.5,11.9336 L550.5,11.9336 A3.75,3.75 0 0 1 553,14.4336 L560,64.4961 L3094.5,64.4961 A2.5,2.5 0 0 1 3097,66.9961 L3097,1366.4336 A2.5,2.5 0 0 1 3094.5,1368.9336 L8.5,1368.9336 A2.5,2.5 0 0 1 6,1366.4336 L6,14.4336 A2.5,2.5 0 0 1 8.5,11.9336 " fill="none" style="stroke:#000000;stroke-width:1.5;"/><line style="stroke:#000000;stroke-width:1.5;" x1="6" x2="560" y1="64.4961" y2="64.4961"/><text fill="#000000" font-family="Broadway" font-size="40" font-weight="bold" lengthAdjust="spacing" textLength="541" x="10" y="51.0625">org.renaultleat.network</text></g><!--MD5=[0c73871d83983e3774cf70cc55232bb0]
class HeartBeatStorage--><g id="elem_HeartBeatStorage"><rect codeLine="8" fill="#F1F1F1" height="351.9375" id="HeartBeatStorage" rx="2.5" ry="2.5" style="stroke:#181818;stroke-width:0.5;" width="1691" x="22.5" y="123.4336"/><ellipse cx="681.25" cy="151.7148" fill="#ADD1B2" rx="19" ry="19" style="stroke:#181818;stroke-width:1.0;"/><path d="M691.3594,160.8711 Q690,161.5742 688.4844,161.918 Q686.9844,162.2773 685.3281,162.2773 Q679.4375,162.2773 676.3281,158.4023 Q673.2188,154.5117 673.2188,147.168 Q673.2188,139.793 676.3281,135.918 Q679.4375,132.0273 685.3281,132.0273 Q686.9844,132.0273 688.5,132.3867 Q690.0313,132.7305 691.3594,133.4336 L691.3594,139.8398 Q689.875,138.4648 688.4844,137.8398 Q687.0938,137.1992 685.6094,137.1992 Q682.4375,137.1992 680.8281,139.7148 Q679.2188,142.2148 679.2188,147.168 Q679.2188,152.0898 680.8281,154.6055 Q682.4375,157.1055 685.6094,157.1055 Q687.0938,157.1055 688.4844,156.4805 Q689.875,155.8398 691.3594,154.4648 L691.3594,160.8711 Z " fill="#000000"/><text fill="#000000" font-family="Broadway" font-size="40" lengthAdjust="spacing" textLength="361" x="713.75" y="165.5625">HeartBeatStorage</text><line style="stroke:#181818;stroke-width:0.5;" x1="23.5" x2="1712.5" y1="179.9961" y2="179.9961"/><ellipse cx="33.5" cy="208.7773" fill="none" rx="3" ry="3" style="stroke:#038048;stroke-width:1.0;"/><text fill="#000000" font-family="Broadway" font-size="40" lengthAdjust="spacing" textLength="1079" x="50.5" y="221.125">peerUtilitarianHeartBeat : Map&lt;Integer, Timestamp&gt;</text><line style="stroke:#181818;stroke-width:0.5;" x1="23.5" x2="1712.5" y1="234.5586" y2="234.5586"/><ellipse cx="33.5" cy="263.3398" fill="#84BE84" rx="3" ry="3" style="stroke:#038048;stroke-width:1.0;"/><text fill="#000000" font-family="Broadway" font-size="40" lengthAdjust="spacing" textLength="655" x="50.5" y="275.6875">getActivePeers() : List&lt;Integer&gt;</text><ellipse cx="33.5" cy="309.9023" fill="#84BE84" rx="3" ry="3" style="stroke:#038048;stroke-width:1.0;"/><text fill="#000000" font-family="Broadway" font-size="40" lengthAdjust="spacing" textLength="983" x="50.5" y="322.25">getLatestPeerHeartBeat(index : int) : Timestamp</text><ellipse cx="33.5" cy="356.4648" fill="#84BE84" rx="3" ry="3" style="stroke:#038048;stroke-width:1.0;"/><text fill="#000000" font-family="Broadway" font-size="40" lengthAdjust="spacing" textLength="1176" x="50.5" y="368.8125">getPeerUtilitarianHeartBeat() : Map&lt;Integer, Timestamp&gt;</text><ellipse cx="33.5" cy="403.0273" fill="#84BE84" rx="3" ry="3" style="stroke:#038048;stroke-width:1.0;"/><text fill="#000000" font-family="Broadway" font-size="40" lengthAdjust="spacing" textLength="1287" x="50.5" y="415.375">incrementPeerHeartBeat(index : int, inTimeStamp : Timestamp)</text><ellipse cx="33.5" cy="449.5898" fill="#84BE84" rx="3" ry="3" style="stroke:#038048;stroke-width:1.0;"/><text fill="#000000" font-family="Broadway" font-size="40" lengthAdjust="spacing" textLength="1657" x="50.5" y="461.9375">setEffectiveUtilitarianScore(peerUtilitarianHeartBeat : Map&lt;Integer, Timestamp&gt;)</text></g><!--MD5=[03f89b227da79a2fe071c5bef7e7b2c4]
class QueueResource--><g id="elem_QueueResource"><rect codeLine="17" fill="#F1F1F1" height="445.0625" id="QueueResource" rx="2.5" ry="2.5" style="stroke:#181818;stroke-width:0.5;" width="1265" x="1748.5" y="76.9336"/><ellipse cx="2216.25" cy="105.2148" fill="#ADD1B2" rx="19" ry="19" style="stroke:#181818;stroke-width:1.0;"/><path d="M2226.3594,114.3711 Q2225,115.0742 2223.4844,115.418 Q2221.9844,115.7773 2220.3281,115.7773 Q2214.4375,115.7773 2211.3281,111.9023 Q2208.2188,108.0117 2208.2188,100.668 Q2208.2188,93.293 2211.3281,89.418 Q2214.4375,85.5273 2220.3281,85.5273 Q2221.9844,85.5273 2223.5,85.8867 Q2225.0313,86.2305 2226.3594,86.9336 L2226.3594,93.3398 Q2224.875,91.9648 2223.4844,91.3398 Q2222.0938,90.6992 2220.6094,90.6992 Q2217.4375,90.6992 2215.8281,93.2148 Q2214.2188,95.7148 2214.2188,100.668 Q2214.2188,105.5898 2215.8281,108.1055 Q2217.4375,110.6055 2220.6094,110.6055 Q2222.0938,110.6055 2223.4844,109.9805 Q2224.875,109.3398 2226.3594,107.9648 L2226.3594,114.3711 Z " fill="#000000"/><text fill="#000000" font-family="Broadway" font-size="40" lengthAdjust="spacing" textLength="317" x="2248.75" y="119.0625">QueueResource</text><line style="stroke:#181818;stroke-width:0.5;" x1="1749.5" x2="3012.5" y1="133.4961" y2="133.4961"/><polygon fill="none" points="1759.5,158.2773,1755.5,164.2773,1763.5,164.2773" style="stroke:#1963A0;stroke-width:1.0;"/><text fill="#000000" font-family="Broadway" font-size="40" lengthAdjust="spacing" textLength="1076" x="1776.5" y="174.625">finaliseBlockingQueue : BlockingQueue&lt;JSONObject&gt;</text><polygon fill="none" points="1759.5,204.8398,1755.5,210.8398,1763.5,210.8398" style="stroke:#1963A0;stroke-width:1.0;"/><text fill="#000000" font-family="Broadway" font-size="40" lengthAdjust="spacing" textLength="1101" x="1776.5" y="221.1875">fullBlockBlockingQueue : BlockingQueue&lt;JSONObject&gt;</text><polygon fill="none" points="1759.5,251.4023,1755.5,257.4023,1763.5,257.4023" style="stroke:#1963A0;stroke-width:1.0;"/><text fill="#000000" font-family="Broadway" font-size="40" lengthAdjust="spacing" textLength="1133" x="1776.5" y="267.75">heartBeatBlockingQueue : BlockingQueue&lt;JSONObject&gt;</text><polygon fill="none" points="1759.5,297.9648,1755.5,303.9648,1763.5,303.9648" style="stroke:#1963A0;stroke-width:1.0;"/><text fill="#000000" font-family="Broadway" font-size="40" lengthAdjust="spacing" textLength="1114" x="1776.5" y="314.3125">messageBlockingQueue : BlockingQueue&lt;JSONObject&gt;</text><polygon fill="none" points="1759.5,344.5273,1755.5,350.5273,1763.5,350.5273" style="stroke:#1963A0;stroke-width:1.0;"/><text fill="#000000" font-family="Broadway" font-size="40" lengthAdjust="spacing" textLength="1087" x="1776.5" y="360.875">quorumBlockingQueue : BlockingQueue&lt;JSONObject&gt;</text><polygon fill="none" points="1759.5,391.0898,1755.5,397.0898,1763.5,397.0898" style="stroke:#1963A0;stroke-width:1.0;"/><text fill="#000000" font-family="Broadway" font-size="40" lengthAdjust="spacing" textLength="1159" x="1776.5" y="407.4375">transactionBlockingQueue : BlockingQueue&lt;JSONObject&gt;</text><polygon fill="none" points="1759.5,437.6523,1755.5,443.6523,1763.5,443.6523" style="stroke:#1963A0;stroke-width:1.0;"/><text fill="#000000" font-family="Broadway" font-size="40" lengthAdjust="spacing" textLength="1231" x="1776.5" y="454">transactionBlockingQueueSec : BlockingQueue&lt;JSONObject&gt;</text><polygon fill="none" points="1759.5,484.2148,1755.5,490.2148,1763.5,490.2148" style="stroke:#1963A0;stroke-width:1.0;"/><text fill="#000000" font-family="Broadway" font-size="40" lengthAdjust="spacing" textLength="1224" x="1776.5" y="500.5625">transactionBlockingQueueTer : BlockingQueue&lt;JSONObject&gt;</text><line style="stroke:#181818;stroke-width:0.5;" x1="1749.5" x2="3012.5" y1="513.9961" y2="513.9961"/></g><!--MD5=[a1454bfc29ac737589503861744a7bf4]
class QuorumStorage--><g id="elem_QuorumStorage"><rect codeLine="28" fill="#F1F1F1" height="771" id="QuorumStorage" rx="2.5" ry="2.5" style="stroke:#181818;stroke-width:0.5;" width="1350" x="22" y="581.9336"/><ellipse cx="532.75" cy="610.2148" fill="#ADD1B2" rx="19" ry="19" style="stroke:#181818;stroke-width:1.0;"/><path d="M542.8594,619.3711 Q541.5,620.0742 539.9844,620.418 Q538.4844,620.7773 536.8281,620.7773 Q530.9375,620.7773 527.8281,616.9023 Q524.7188,613.0117 524.7188,605.668 Q524.7188,598.293 527.8281,594.418 Q530.9375,590.5273 536.8281,590.5273 Q538.4844,590.5273 540,590.8867 Q541.5313,591.2305 542.8594,591.9336 L542.8594,598.3398 Q541.375,596.9648 539.9844,596.3398 Q538.5938,595.6992 537.1094,595.6992 Q533.9375,595.6992 532.3281,598.2148 Q530.7188,600.7148 530.7188,605.668 Q530.7188,610.5898 532.3281,613.1055 Q533.9375,615.6055 537.1094,615.6055 Q538.5938,615.6055 539.9844,614.9805 Q541.375,614.3398 542.8594,612.9648 L542.8594,619.3711 Z " fill="#000000"/><text fill="#000000" font-family="Broadway" font-size="40" lengthAdjust="spacing" textLength="316" x="565.25" y="624.0625">QuorumStorage</text><line style="stroke:#181818;stroke-width:0.5;" x1="23" x2="1371" y1="638.4961" y2="638.4961"/><polygon fill="none" points="33,663.2773,29,669.2773,37,669.2773" style="stroke:#1963A0;stroke-width:1.0;"/><text fill="#000000" font-family="Broadway" font-size="40" lengthAdjust="spacing" textLength="532" x="50" y="679.625">altruistList : List&lt;Integer&gt;</text><ellipse cx="33" cy="713.8398" fill="none" rx="3" ry="3" style="stroke:#038048;stroke-width:1.0;"/><text fill="#000000" font-family="Broadway" font-size="40" lengthAdjust="spacing" text-decoration="underline" textLength="739" x="50" y="726.1875">currentmembersinsideurquorum : int</text><ellipse cx="33" cy="760.4023" fill="none" rx="3" ry="3" style="stroke:#038048;stroke-width:1.0;"/><text fill="#000000" font-family="Broadway" font-size="40" lengthAdjust="spacing" textLength="1310" x="50" y="772.75">effectiveUtilitarianScore : Map&lt;Integer, Map&lt;Integer, Double&gt;&gt;</text><polygon fill="none" points="33,802.9648,29,808.9648,37,808.9648" style="stroke:#1963A0;stroke-width:1.0;"/><text fill="#000000" font-family="Broadway" font-size="40" lengthAdjust="spacing" textLength="600" x="50" y="819.3125">fairAltruistList : List&lt;Integer&gt;</text><polygon fill="none" points="33,849.5273,29,855.5273,37,855.5273" style="stroke:#1963A0;stroke-width:1.0;"/><text fill="#000000" font-family="Broadway" font-size="40" lengthAdjust="spacing" textLength="631" x="50" y="865.875">idealAltruistList : List&lt;Integer&gt;</text><polygon fill="none" points="33,896.0898,29,902.0898,37,902.0898" style="stroke:#1963A0;stroke-width:1.0;"/><text fill="#000000" font-family="Broadway" font-size="40" lengthAdjust="spacing" textLength="542" x="50" y="912.4375">interQuorumApprovals : int</text><polygon fill="none" points="33,942.6523,29,948.6523,37,948.6523" style="stroke:#1963A0;stroke-width:1.0;"/><text fill="#000000" font-family="Broadway" font-size="40" lengthAdjust="spacing" textLength="542" x="50" y="959">intraQuorumApprovals : int</text><ellipse cx="33" cy="993.2148" fill="none" rx="3" ry="3" style="stroke:#038048;stroke-width:1.0;"/><text fill="#000000" font-family="Broadway" font-size="40" lengthAdjust="spacing" text-decoration="underline" textLength="545" x="50" y="1005.5625">quorumInitialised : boolean</text><ellipse cx="33" cy="1039.7773" fill="none" rx="3" ry="3" style="stroke:#038048;stroke-width:1.0;"/><text fill="#000000" font-family="Broadway" font-size="40" lengthAdjust="spacing" textLength="1316" x="50" y="1052.125">quorumMessageMap : NavigableMap&lt;Integer, QuorumMessage&gt;</text><ellipse cx="33" cy="1086.3398" fill="none" rx="3" ry="3" style="stroke:#038048;stroke-width:1.0;"/><text fill="#000000" font-family="Broadway" font-size="40" lengthAdjust="spacing" text-decoration="underline" textLength="281" x="50" y="1098.6875">quorumid : int</text><ellipse cx="33" cy="1132.9023" fill="none" rx="3" ry="3" style="stroke:#038048;stroke-width:1.0;"/><text fill="#000000" font-family="Broadway" font-size="40" lengthAdjust="spacing" text-decoration="underline" textLength="355" x="50" y="1145.25">quorumindex : int</text><ellipse cx="33" cy="1179.4648" fill="none" rx="3" ry="3" style="stroke:#038048;stroke-width:1.0;"/><text fill="#000000" font-family="Broadway" font-size="40" lengthAdjust="spacing" text-decoration="underline" textLength="549" x="50" y="1191.8125">totaleffectivemembers : int</text><ellipse cx="33" cy="1226.0273" fill="none" rx="3" ry="3" style="stroke:#038048;stroke-width:1.0;"/><text fill="#000000" font-family="Broadway" font-size="40" lengthAdjust="spacing" text-decoration="underline" textLength="527" x="50" y="1238.375">totalquorummembers : int</text><ellipse cx="33" cy="1272.5898" fill="none" rx="3" ry="3" style="stroke:#038048;stroke-width:1.0;"/><text fill="#000000" font-family="Broadway" font-size="40" lengthAdjust="spacing" textLength="963" x="50" y="1284.9375">utilitarianClassification : Map&lt;Integer, Integer&gt;</text><polygon fill="none" points="33,1315.1523,29,1321.1523,37,1321.1523" style="stroke:#1963A0;stroke-width:1.0;"/><text fill="#000000" font-family="Broadway" font-size="40" lengthAdjust="spacing" textLength="640" x="50" y="1331.5">weakAltruistList : List&lt;Integer&gt;</text><line style="stroke:#181818;stroke-width:0.5;" x1="23" x2="1371" y1="1344.9336" y2="1344.9336"/></g><!--MD5=[e14ac9cf78d5921835c5523b4b951bb8]
class UtilitarianScoreStorage--><g id="elem_UtilitarianScoreStorage"><rect codeLine="46" fill="#F1F1F1" height="445.0625" id="UtilitarianScoreStorage" rx="2.5" ry="2.5" style="stroke:#181818;stroke-width:0.5;" width="1673" x="1407.5" y="744.9336"/><ellipse cx="2005.75" cy="773.2148" fill="#ADD1B2" rx="19" ry="19" style="stroke:#181818;stroke-width:1.0;"/><path d="M2015.8594,782.3711 Q2014.5,783.0742 2012.9844,783.418 Q2011.4844,783.7773 2009.8281,783.7773 Q2003.9375,783.7773 2000.8281,779.9023 Q1997.7188,776.0117 1997.7188,768.668 Q1997.7188,761.293 2000.8281,757.418 Q2003.9375,753.5273 2009.8281,753.5273 Q2011.4844,753.5273 2013,753.8867 Q2014.5313,754.2305 2015.8594,754.9336 L2015.8594,761.3398 Q2014.375,759.9648 2012.9844,759.3398 Q2011.5938,758.6992 2010.1094,758.6992 Q2006.9375,758.6992 2005.3281,761.2148 Q2003.7188,763.7148 2003.7188,768.668 Q2003.7188,773.5898 2005.3281,776.1055 Q2006.9375,778.6055 2010.1094,778.6055 Q2011.5938,778.6055 2012.9844,777.9805 Q2014.375,777.3398 2015.8594,775.9648 L2015.8594,782.3711 Z " fill="#000000"/><text fill="#000000" font-family="Broadway" font-size="40" lengthAdjust="spacing" textLength="464" x="2038.25" y="787.0625">UtilitarianScoreStorage</text><line style="stroke:#181818;stroke-width:0.5;" x1="1408.5" x2="3079.5" y1="801.4961" y2="801.4961"/><ellipse cx="1418.5" cy="830.2773" fill="none" rx="3" ry="3" style="stroke:#038048;stroke-width:1.0;"/><text fill="#000000" font-family="Broadway" font-size="40" lengthAdjust="spacing" textLength="1501" x="1435.5" y="842.625">PeerUtilitarianBlockProposalScore : Map&lt;Integer, Map&lt;Integer, Double&gt;&gt;</text><ellipse cx="1418.5" cy="876.8398" fill="none" rx="3" ry="3" style="stroke:#038048;stroke-width:1.0;"/><text fill="#000000" font-family="Broadway" font-size="40" lengthAdjust="spacing" textLength="1381" x="1435.5" y="889.1875">PeerUtilitarianCommitScore : Map&lt;Integer, Map&lt;Integer, Double&gt;&gt;</text><ellipse cx="1418.5" cy="923.4023" fill="none" rx="3" ry="3" style="stroke:#038048;stroke-width:1.0;"/><text fill="#000000" font-family="Broadway" font-size="40" lengthAdjust="spacing" textLength="1429" x="1435.5" y="935.75">PeerUtilitarianHeartBeatScore : Map&lt;Integer, Map&lt;Integer, Double&gt;&gt;</text><ellipse cx="1418.5" cy="969.9648" fill="none" rx="3" ry="3" style="stroke:#038048;stroke-width:1.0;"/><text fill="#000000" font-family="Broadway" font-size="40" lengthAdjust="spacing" textLength="1409" x="1435.5" y="982.3125">PeerUtilitarianMaliciousScore : Map&lt;Integer, Map&lt;Integer, Double&gt;&gt;</text><ellipse cx="1418.5" cy="1016.5273" fill="none" rx="3" ry="3" style="stroke:#038048;stroke-width:1.0;"/><text fill="#000000" font-family="Broadway" font-size="40" lengthAdjust="spacing" textLength="1639" x="1435.5" y="1028.875">PeerUtilitarianMissedBlockProposalScore : Map&lt;Integer, Map&lt;Integer, Double&gt;&gt;</text><ellipse cx="1418.5" cy="1063.0898" fill="none" rx="3" ry="3" style="stroke:#038048;stroke-width:1.0;"/><text fill="#000000" font-family="Broadway" font-size="40" lengthAdjust="spacing" textLength="1519" x="1435.5" y="1075.4375">PeerUtilitarianMissedCommitScore : Map&lt;Integer, Map&lt;Integer, Double&gt;&gt;</text><ellipse cx="1418.5" cy="1109.6523" fill="none" rx="3" ry="3" style="stroke:#038048;stroke-width:1.0;"/><text fill="#000000" font-family="Broadway" font-size="40" lengthAdjust="spacing" textLength="1567" x="1435.5" y="1122">PeerUtilitarianMissedHeartBeatScore : Map&lt;Integer, Map&lt;Integer, Double&gt;&gt;</text><ellipse cx="1418.5" cy="1156.2148" fill="none" rx="3" ry="3" style="stroke:#038048;stroke-width:1.0;"/><text fill="#000000" font-family="Broadway" font-size="40" lengthAdjust="spacing" textLength="1340" x="1435.5" y="1168.5625">interBlockTimeCoefficient : Map&lt;Integer, Map&lt;Integer, Double&gt;&gt;</text><line style="stroke:#181818;stroke-width:0.5;" x1="1408.5" x2="3079.5" y1="1181.9961" y2="1181.9961"/></g><!--MD5=[4e314697649b380c0320bb35f180d8af]
@startuml
skinparam backgroundColor oldlace
skinparam defaultFontColor black
skinparam defaultFontSize 40
skinparam ArrowColor mediumturquoise
skinparam ArrowThickness 5
skinparam DefaultFontName Broadway
package org.renaultleat.network {
  class HeartBeatStorage {
    + peerUtilitarianHeartBeat : Map<Integer, Timestamp>
    + getActivePeers() : List<Integer>
    + getLatestPeerHeartBeat(index : int) : Timestamp
    + getPeerUtilitarianHeartBeat() : Map<Integer, Timestamp>
    + incrementPeerHeartBeat(index : int, inTimeStamp : Timestamp)
    + setEffectiveUtilitarianScore(peerUtilitarianHeartBeat : Map<Integer, Timestamp>)
  }

  class QueueResource {
    ~ finaliseBlockingQueue : BlockingQueue<JSONObject>
    ~ fullBlockBlockingQueue : BlockingQueue<JSONObject>
    ~ heartBeatBlockingQueue : BlockingQueue<JSONObject>
    ~ messageBlockingQueue : BlockingQueue<JSONObject>
    ~ quorumBlockingQueue : BlockingQueue<JSONObject>
    ~ transactionBlockingQueue : BlockingQueue<JSONObject>
    ~ transactionBlockingQueueSec : BlockingQueue<JSONObject>
    ~ transactionBlockingQueueTer : BlockingQueue<JSONObject>
    
  }
  class QuorumStorage {
    ~ altruistList : List<Integer>
    + currentmembersinsideurquorum : int {static}
    + effectiveUtilitarianScore : Map<Integer, Map<Integer, Double>>
    ~ fairAltruistList : List<Integer>
    ~ idealAltruistList : List<Integer>
    ~ interQuorumApprovals : int
    ~ intraQuorumApprovals : int
    + quorumInitialised : boolean {static}
    + quorumMessageMap : NavigableMap<Integer, QuorumMessage>
    + quorumid : int {static}
    + quorumindex : int {static}
    + totaleffectivemembers : int {static}
    + totalquorummembers : int {static}
    + utilitarianClassification : Map<Integer, Integer>
    ~ weakAltruistList : List<Integer>
    
  }
  class UtilitarianScoreStorage {
    + PeerUtilitarianBlockProposalScore : Map<Integer, Map<Integer, Double>>
    + PeerUtilitarianCommitScore : Map<Integer, Map<Integer, Double>>
    + PeerUtilitarianHeartBeatScore : Map<Integer, Map<Integer, Double>>
    + PeerUtilitarianMaliciousScore : Map<Integer, Map<Integer, Double>>
    + PeerUtilitarianMissedBlockProposalScore : Map<Integer, Map<Integer, Double>>
    + PeerUtilitarianMissedCommitScore : Map<Integer, Map<Integer, Double>>
    + PeerUtilitarianMissedHeartBeatScore : Map<Integer, Map<Integer, Double>>
    + interBlockTimeCoefficient : Map<Integer, Map<Integer, Double>>
  }
}

@enduml

PlantUML version 1.2022.7(Mon Aug 22 19:01:30 CEST 2022)
(GPL source distribution)
Java Runtime: OpenJDK Runtime Environment
JVM: OpenJDK 64-Bit Server VM
Default Encoding: UTF-8
Language: en
Country: US
--></g></svg>