<?xml version="1.0" encoding="UTF-8" standalone="no"?><svg xmlns="http://www.w3.org/2000/svg" xmlns:xlink="http://www.w3.org/1999/xlink" contentStyleType="text/css" height="767px" preserveAspectRatio="none" style="width:1606px;height:767px;background:#FDF5E6;" version="1.1" viewBox="0 0 1606 767" width="1606px" zoomAndPan="magnify"><defs/><g><!--MD5=[eb3ee92a8381fbf23043ab7f94c29bda]
cluster org.renaultleat.network--><g id="cluster_org.renaultleat.network"><path d="M8.5,7.2168 L284.5,7.2168 A3.75,3.75 0 0 1 287,9.7168 L294,36.498 L1596.5,36.498 A2.5,2.5 0 0 1 1599,38.998 L1599,757.7168 A2.5,2.5 0 0 1 1596.5,760.2168 L8.5,760.2168 A2.5,2.5 0 0 1 6,757.7168 L6,9.7168 A2.5,2.5 0 0 1 8.5,7.2168 " fill="none" style="stroke:#000000;stroke-width:1.5;"/><line style="stroke:#000000;stroke-width:1.5;" x1="6" x2="294" y1="36.498" y2="36.498"/><text fill="#000000" font-family="Broadway" font-size="20" font-weight="bold" lengthAdjust="spacing" textLength="275" x="10" y="27.7813">org.renaultleat.network</text></g><!--MD5=[0c73871d83983e3774cf70cc55232bb0]
class HeartBeatStorage--><g id="elem_HeartBeatStorage"><rect codeLine="8" fill="#F1F1F1" height="189.6875" id="HeartBeatStorage" rx="2.5" ry="2.5" style="stroke:#181818;stroke-width:0.5;" width="854" x="22" y="72.2168"/><ellipse cx="355" cy="89.2168" fill="#ADD1B2" rx="12" ry="12" style="stroke:#181818;stroke-width:1.0;"/><path d="M358.0625,96.2949 Q357.375,96.6543 356.625,96.8262 Q355.875,96.998 355.0469,96.998 Q352.0938,96.998 350.5313,95.0605 Q348.9844,93.1074 348.9844,89.4355 Q348.9844,85.7637 350.5313,83.8262 Q352.0938,81.873 355.0469,81.873 Q355.875,81.873 356.625,82.0449 Q357.3906,82.2168 358.0625,82.5762 L358.0625,85.7793 Q357.3125,85.0918 356.6094,84.7793 Q355.9219,84.4668 355.1719,84.4668 Q353.5938,84.4668 352.7813,85.7168 Q351.9844,86.9668 351.9844,89.4355 Q351.9844,91.9043 352.7813,93.1543 Q353.5938,94.4043 355.1719,94.4043 Q355.9219,94.4043 356.6094,94.0918 Q357.3125,93.7793 358.0625,93.0918 L358.0625,96.2949 Z " fill="#000000"/><text fill="#000000" font-family="Broadway" font-size="20" lengthAdjust="spacing" textLength="179" x="377" y="96.1406">HeartBeatStorage</text><line style="stroke:#181818;stroke-width:0.5;" x1="23" x2="875" y1="106.2168" y2="106.2168"/><ellipse cx="33" cy="123.3574" fill="none" rx="3" ry="3" style="stroke:#038048;stroke-width:1.0;"/><text fill="#000000" font-family="Broadway" font-size="20" lengthAdjust="spacing" textLength="538" x="43" y="128.7813">peerUtilitarianHeartBeat : Map&lt;Integer, Timestamp&gt;</text><line style="stroke:#181818;stroke-width:0.5;" x1="23" x2="875" y1="137.498" y2="137.498"/><ellipse cx="33" cy="154.6387" fill="#84BE84" rx="3" ry="3" style="stroke:#038048;stroke-width:1.0;"/><text fill="#000000" font-family="Broadway" font-size="20" lengthAdjust="spacing" textLength="325" x="43" y="160.0625">getActivePeers() : List&lt;Integer&gt;</text><ellipse cx="33" cy="177.9199" fill="#84BE84" rx="3" ry="3" style="stroke:#038048;stroke-width:1.0;"/><text fill="#000000" font-family="Broadway" font-size="20" lengthAdjust="spacing" textLength="488" x="43" y="183.3438">getLatestPeerHeartBeat(index : int) : Timestamp</text><ellipse cx="33" cy="201.2012" fill="#84BE84" rx="3" ry="3" style="stroke:#038048;stroke-width:1.0;"/><text fill="#000000" font-family="Broadway" font-size="20" lengthAdjust="spacing" textLength="586" x="43" y="206.625">getPeerUtilitarianHeartBeat() : Map&lt;Integer, Timestamp&gt;</text><ellipse cx="33" cy="224.4824" fill="#84BE84" rx="3" ry="3" style="stroke:#038048;stroke-width:1.0;"/><text fill="#000000" font-family="Broadway" font-size="20" lengthAdjust="spacing" textLength="644" x="43" y="229.9063">incrementPeerHeartBeat(index : int, inTimeStamp : Timestamp)</text><ellipse cx="33" cy="247.7637" fill="#84BE84" rx="3" ry="3" style="stroke:#038048;stroke-width:1.0;"/><text fill="#000000" font-family="Broadway" font-size="20" lengthAdjust="spacing" textLength="827" x="43" y="253.1875">setEffectiveUtilitarianScore(peerUtilitarianHeartBeat : Map&lt;Integer, Timestamp&gt;)</text></g><!--MD5=[03f89b227da79a2fe071c5bef7e7b2c4]
class QueueResource--><g id="elem_QueueResource"><rect codeLine="17" fill="#F1F1F1" height="236.25" id="QueueResource" rx="2.5" ry="2.5" style="stroke:#181818;stroke-width:0.5;" width="651" x="911.5" y="49.2168"/><ellipse cx="1153.5" cy="66.2168" fill="#ADD1B2" rx="12" ry="12" style="stroke:#181818;stroke-width:1.0;"/><path d="M1156.5625,73.2949 Q1155.875,73.6543 1155.125,73.8262 Q1154.375,73.998 1153.5469,73.998 Q1150.5938,73.998 1149.0313,72.0605 Q1147.4844,70.1074 1147.4844,66.4355 Q1147.4844,62.7637 1149.0313,60.8262 Q1150.5938,58.873 1153.5469,58.873 Q1154.375,58.873 1155.125,59.0449 Q1155.8906,59.2168 1156.5625,59.5762 L1156.5625,62.7793 Q1155.8125,62.0918 1155.1094,61.7793 Q1154.4219,61.4668 1153.6719,61.4668 Q1152.0938,61.4668 1151.2813,62.7168 Q1150.4844,63.9668 1150.4844,66.4355 Q1150.4844,68.9043 1151.2813,70.1543 Q1152.0938,71.4043 1153.6719,71.4043 Q1154.4219,71.4043 1155.1094,71.0918 Q1155.8125,70.7793 1156.5625,70.0918 L1156.5625,73.2949 Z " fill="#000000"/><text fill="#000000" font-family="Broadway" font-size="20" lengthAdjust="spacing" textLength="158" x="1175.5" y="73.1406">QueueResource</text><line style="stroke:#181818;stroke-width:0.5;" x1="912.5" x2="1561.5" y1="83.2168" y2="83.2168"/><polygon fill="none" points="922.5,96.3574,918.5,102.3574,926.5,102.3574" style="stroke:#1963A0;stroke-width:1.0;"/><text fill="#000000" font-family="Broadway" font-size="20" lengthAdjust="spacing" textLength="547" x="932.5" y="105.7813">finaliseBlockingQueue : BlockingQueue&lt;JSONObject&gt;</text><polygon fill="none" points="922.5,119.6387,918.5,125.6387,926.5,125.6387" style="stroke:#1963A0;stroke-width:1.0;"/><text fill="#000000" font-family="Broadway" font-size="20" lengthAdjust="spacing" textLength="562" x="932.5" y="129.0625">fullBlockBlockingQueue : BlockingQueue&lt;JSONObject&gt;</text><polygon fill="none" points="922.5,142.9199,918.5,148.9199,926.5,148.9199" style="stroke:#1963A0;stroke-width:1.0;"/><text fill="#000000" font-family="Broadway" font-size="20" lengthAdjust="spacing" textLength="574" x="932.5" y="152.3438">heartBeatBlockingQueue : BlockingQueue&lt;JSONObject&gt;</text><polygon fill="none" points="922.5,166.2012,918.5,172.2012,926.5,172.2012" style="stroke:#1963A0;stroke-width:1.0;"/><text fill="#000000" font-family="Broadway" font-size="20" lengthAdjust="spacing" textLength="564" x="932.5" y="175.625">messageBlockingQueue : BlockingQueue&lt;JSONObject&gt;</text><polygon fill="none" points="922.5,189.4824,918.5,195.4824,926.5,195.4824" style="stroke:#1963A0;stroke-width:1.0;"/><text fill="#000000" font-family="Broadway" font-size="20" lengthAdjust="spacing" textLength="554" x="932.5" y="198.9063">quorumBlockingQueue : BlockingQueue&lt;JSONObject&gt;</text><polygon fill="none" points="922.5,212.7637,918.5,218.7637,926.5,218.7637" style="stroke:#1963A0;stroke-width:1.0;"/><text fill="#000000" font-family="Broadway" font-size="20" lengthAdjust="spacing" textLength="588" x="932.5" y="222.1875">transactionBlockingQueue : BlockingQueue&lt;JSONObject&gt;</text><polygon fill="none" points="922.5,236.0449,918.5,242.0449,926.5,242.0449" style="stroke:#1963A0;stroke-width:1.0;"/><text fill="#000000" font-family="Broadway" font-size="20" lengthAdjust="spacing" textLength="624" x="932.5" y="245.4688">transactionBlockingQueueSec : BlockingQueue&lt;JSONObject&gt;</text><polygon fill="none" points="922.5,259.3262,918.5,265.3262,926.5,265.3262" style="stroke:#1963A0;stroke-width:1.0;"/><text fill="#000000" font-family="Broadway" font-size="20" lengthAdjust="spacing" textLength="620" x="932.5" y="268.75">transactionBlockingQueueTer : BlockingQueue&lt;JSONObject&gt;</text><line style="stroke:#181818;stroke-width:0.5;" x1="912.5" x2="1561.5" y1="277.4668" y2="277.4668"/></g><!--MD5=[a1454bfc29ac737589503861744a7bf4]
class QuorumStorage--><g id="elem_QuorumStorage"><rect codeLine="28" fill="#F1F1F1" height="399.2188" id="QuorumStorage" rx="2.5" ry="2.5" style="stroke:#181818;stroke-width:0.5;" width="681" x="21.5" y="345.2168"/><ellipse cx="277.5" cy="362.2168" fill="#ADD1B2" rx="12" ry="12" style="stroke:#181818;stroke-width:1.0;"/><path d="M280.5625,369.2949 Q279.875,369.6543 279.125,369.8262 Q278.375,369.998 277.5469,369.998 Q274.5938,369.998 273.0313,368.0605 Q271.4844,366.1074 271.4844,362.4355 Q271.4844,358.7637 273.0313,356.8262 Q274.5938,354.873 277.5469,354.873 Q278.375,354.873 279.125,355.0449 Q279.8906,355.2168 280.5625,355.5762 L280.5625,358.7793 Q279.8125,358.0918 279.1094,357.7793 Q278.4219,357.4668 277.6719,357.4668 Q276.0938,357.4668 275.2813,358.7168 Q274.4844,359.9668 274.4844,362.4355 Q274.4844,364.9043 275.2813,366.1543 Q276.0938,367.4043 277.6719,367.4043 Q278.4219,367.4043 279.1094,367.0918 Q279.8125,366.7793 280.5625,366.0918 L280.5625,369.2949 Z " fill="#000000"/><text fill="#000000" font-family="Broadway" font-size="20" lengthAdjust="spacing" textLength="160" x="299.5" y="369.1406">QuorumStorage</text><line style="stroke:#181818;stroke-width:0.5;" x1="22.5" x2="701.5" y1="379.2168" y2="379.2168"/><polygon fill="none" points="32.5,392.3574,28.5,398.3574,36.5,398.3574" style="stroke:#1963A0;stroke-width:1.0;"/><text fill="#000000" font-family="Broadway" font-size="20" lengthAdjust="spacing" textLength="266" x="42.5" y="401.7813">altruistList : List&lt;Integer&gt;</text><ellipse cx="32.5" cy="419.6387" fill="none" rx="3" ry="3" style="stroke:#038048;stroke-width:1.0;"/><text fill="#000000" font-family="Broadway" font-size="20" lengthAdjust="spacing" text-decoration="underline" textLength="374" x="42.5" y="425.0625">currentmembersinsideurquorum : int</text><ellipse cx="32.5" cy="442.9199" fill="none" rx="3" ry="3" style="stroke:#038048;stroke-width:1.0;"/><text fill="#000000" font-family="Broadway" font-size="20" lengthAdjust="spacing" textLength="652" x="42.5" y="448.3438">effectiveUtilitarianScore : Map&lt;Integer, Map&lt;Integer, Double&gt;&gt;</text><polygon fill="none" points="32.5,462.2012,28.5,468.2012,36.5,468.2012" style="stroke:#1963A0;stroke-width:1.0;"/><text fill="#000000" font-family="Broadway" font-size="20" lengthAdjust="spacing" textLength="301" x="42.5" y="471.625">fairAltruistList : List&lt;Integer&gt;</text><polygon fill="none" points="32.5,485.4824,28.5,491.4824,36.5,491.4824" style="stroke:#1963A0;stroke-width:1.0;"/><text fill="#000000" font-family="Broadway" font-size="20" lengthAdjust="spacing" textLength="317" x="42.5" y="494.9063">idealAltruistList : List&lt;Integer&gt;</text><polygon fill="none" points="32.5,508.7637,28.5,514.7637,36.5,514.7637" style="stroke:#1963A0;stroke-width:1.0;"/><text fill="#000000" font-family="Broadway" font-size="20" lengthAdjust="spacing" textLength="274" x="42.5" y="518.1875">interQuorumApprovals : int</text><polygon fill="none" points="32.5,532.0449,28.5,538.0449,36.5,538.0449" style="stroke:#1963A0;stroke-width:1.0;"/><text fill="#000000" font-family="Broadway" font-size="20" lengthAdjust="spacing" textLength="274" x="42.5" y="541.4688">intraQuorumApprovals : int</text><ellipse cx="32.5" cy="559.3262" fill="none" rx="3" ry="3" style="stroke:#038048;stroke-width:1.0;"/><text fill="#000000" font-family="Broadway" font-size="20" lengthAdjust="spacing" text-decoration="underline" textLength="276" x="42.5" y="564.75">quorumInitialised : boolean</text><ellipse cx="32.5" cy="582.6074" fill="none" rx="3" ry="3" style="stroke:#038048;stroke-width:1.0;"/><text fill="#000000" font-family="Broadway" font-size="20" lengthAdjust="spacing" textLength="654" x="42.5" y="588.0313">quorumMessageMap : NavigableMap&lt;Integer, QuorumMessage&gt;</text><ellipse cx="32.5" cy="605.8887" fill="none" rx="3" ry="3" style="stroke:#038048;stroke-width:1.0;"/><text fill="#000000" font-family="Broadway" font-size="20" lengthAdjust="spacing" text-decoration="underline" textLength="144" x="42.5" y="611.3125">quorumid : int</text><ellipse cx="32.5" cy="629.1699" fill="none" rx="3" ry="3" style="stroke:#038048;stroke-width:1.0;"/><text fill="#000000" font-family="Broadway" font-size="20" lengthAdjust="spacing" text-decoration="underline" textLength="180" x="42.5" y="634.5938">quorumindex : int</text><ellipse cx="32.5" cy="652.4512" fill="none" rx="3" ry="3" style="stroke:#038048;stroke-width:1.0;"/><text fill="#000000" font-family="Broadway" font-size="20" lengthAdjust="spacing" text-decoration="underline" textLength="273" x="42.5" y="657.875">totaleffectivemembers : int</text><ellipse cx="32.5" cy="675.7324" fill="none" rx="3" ry="3" style="stroke:#038048;stroke-width:1.0;"/><text fill="#000000" font-family="Broadway" font-size="20" lengthAdjust="spacing" text-decoration="underline" textLength="266" x="42.5" y="681.1563">totalquorummembers : int</text><ellipse cx="32.5" cy="699.0137" fill="none" rx="3" ry="3" style="stroke:#038048;stroke-width:1.0;"/><text fill="#000000" font-family="Broadway" font-size="20" lengthAdjust="spacing" textLength="482" x="42.5" y="704.4375">utilitarianClassification : Map&lt;Integer, Integer&gt;</text><polygon fill="none" points="32.5,718.2949,28.5,724.2949,36.5,724.2949" style="stroke:#1963A0;stroke-width:1.0;"/><text fill="#000000" font-family="Broadway" font-size="20" lengthAdjust="spacing" textLength="321" x="42.5" y="727.7188">weakAltruistList : List&lt;Integer&gt;</text><line style="stroke:#181818;stroke-width:0.5;" x1="22.5" x2="701.5" y1="736.4355" y2="736.4355"/></g><!--MD5=[e14ac9cf78d5921835c5523b4b951bb8]
class UtilitarianScoreStorage--><g id="elem_UtilitarianScoreStorage"><rect codeLine="46" fill="#F1F1F1" height="236.25" id="UtilitarianScoreStorage" rx="2.5" ry="2.5" style="stroke:#181818;stroke-width:0.5;" width="845" x="737.5" y="426.7168"/><ellipse cx="1038.5" cy="443.7168" fill="#ADD1B2" rx="12" ry="12" style="stroke:#181818;stroke-width:1.0;"/><path d="M1041.5625,450.7949 Q1040.875,451.1543 1040.125,451.3262 Q1039.375,451.498 1038.5469,451.498 Q1035.5938,451.498 1034.0313,449.5605 Q1032.4844,447.6074 1032.4844,443.9355 Q1032.4844,440.2637 1034.0313,438.3262 Q1035.5938,436.373 1038.5469,436.373 Q1039.375,436.373 1040.125,436.5449 Q1040.8906,436.7168 1041.5625,437.0762 L1041.5625,440.2793 Q1040.8125,439.5918 1040.1094,439.2793 Q1039.4219,438.9668 1038.6719,438.9668 Q1037.0938,438.9668 1036.2813,440.2168 Q1035.4844,441.4668 1035.4844,443.9355 Q1035.4844,446.4043 1036.2813,447.6543 Q1037.0938,448.9043 1038.6719,448.9043 Q1039.4219,448.9043 1040.1094,448.5918 Q1040.8125,448.2793 1041.5625,447.5918 L1041.5625,450.7949 Z " fill="#000000"/><text fill="#000000" font-family="Broadway" font-size="20" lengthAdjust="spacing" textLength="234" x="1060.5" y="450.6406">UtilitarianScoreStorage</text><line style="stroke:#181818;stroke-width:0.5;" x1="738.5" x2="1581.5" y1="460.7168" y2="460.7168"/><ellipse cx="748.5" cy="477.8574" fill="none" rx="3" ry="3" style="stroke:#038048;stroke-width:1.0;"/><text fill="#000000" font-family="Broadway" font-size="20" lengthAdjust="spacing" textLength="750" x="758.5" y="483.2813">PeerUtilitarianBlockProposalScore : Map&lt;Integer, Map&lt;Integer, Double&gt;&gt;</text><ellipse cx="748.5" cy="501.1387" fill="none" rx="3" ry="3" style="stroke:#038048;stroke-width:1.0;"/><text fill="#000000" font-family="Broadway" font-size="20" lengthAdjust="spacing" textLength="690" x="758.5" y="506.5625">PeerUtilitarianCommitScore : Map&lt;Integer, Map&lt;Integer, Double&gt;&gt;</text><ellipse cx="748.5" cy="524.4199" fill="none" rx="3" ry="3" style="stroke:#038048;stroke-width:1.0;"/><text fill="#000000" font-family="Broadway" font-size="20" lengthAdjust="spacing" textLength="711" x="758.5" y="529.8438">PeerUtilitarianHeartBeatScore : Map&lt;Integer, Map&lt;Integer, Double&gt;&gt;</text><ellipse cx="748.5" cy="547.7012" fill="none" rx="3" ry="3" style="stroke:#038048;stroke-width:1.0;"/><text fill="#000000" font-family="Broadway" font-size="20" lengthAdjust="spacing" textLength="703" x="758.5" y="553.125">PeerUtilitarianMaliciousScore : Map&lt;Integer, Map&lt;Integer, Double&gt;&gt;</text><ellipse cx="748.5" cy="570.9824" fill="none" rx="3" ry="3" style="stroke:#038048;stroke-width:1.0;"/><text fill="#000000" font-family="Broadway" font-size="20" lengthAdjust="spacing" textLength="818" x="758.5" y="576.4063">PeerUtilitarianMissedBlockProposalScore : Map&lt;Integer, Map&lt;Integer, Double&gt;&gt;</text><ellipse cx="748.5" cy="594.2637" fill="none" rx="3" ry="3" style="stroke:#038048;stroke-width:1.0;"/><text fill="#000000" font-family="Broadway" font-size="20" lengthAdjust="spacing" textLength="758" x="758.5" y="599.6875">PeerUtilitarianMissedCommitScore : Map&lt;Integer, Map&lt;Integer, Double&gt;&gt;</text><ellipse cx="748.5" cy="617.5449" fill="none" rx="3" ry="3" style="stroke:#038048;stroke-width:1.0;"/><text fill="#000000" font-family="Broadway" font-size="20" lengthAdjust="spacing" textLength="779" x="758.5" y="622.9688">PeerUtilitarianMissedHeartBeatScore : Map&lt;Integer, Map&lt;Integer, Double&gt;&gt;</text><ellipse cx="748.5" cy="640.8262" fill="none" rx="3" ry="3" style="stroke:#038048;stroke-width:1.0;"/><text fill="#000000" font-family="Broadway" font-size="20" lengthAdjust="spacing" textLength="670" x="758.5" y="646.25">interBlockTimeCoefficient : Map&lt;Integer, Map&lt;Integer, Double&gt;&gt;</text><line style="stroke:#181818;stroke-width:0.5;" x1="738.5" x2="1581.5" y1="654.9668" y2="654.9668"/></g><!--MD5=[8f32b4afcb43f350abf7abf3a7c997e6]
@startuml
skinparam backgroundColor oldlace
skinparam defaultFontColor black
skinparam defaultFontSize 20
skinparam ArrowColor mediumturquoise
skinparam ArrowThickness 5
skinparam DefaultFontName Broadway
package org.renaultleat.network {
  class HeartBeatStorage {
    + peerUtilitarianHeartBeat : Map<Integer, Timestamp>
    + getActivePeers() : List<Integer>
    + getLatestPeerHeartBeat(index : int) : Timestamp
    + getPeerUtilitarianHeartBeat() : Map<Integer, Timestamp>
    + incrementPeerHeartBeat(index : int, inTimeStamp : Timestamp)
    + setEffectiveUtilitarianScore(peerUtilitarianHeartBeat : Map<Integer, Timestamp>)
  }

  class QueueResource {
    ~ finaliseBlockingQueue : BlockingQueue<JSONObject>
    ~ fullBlockBlockingQueue : BlockingQueue<JSONObject>
    ~ heartBeatBlockingQueue : BlockingQueue<JSONObject>
    ~ messageBlockingQueue : BlockingQueue<JSONObject>
    ~ quorumBlockingQueue : BlockingQueue<JSONObject>
    ~ transactionBlockingQueue : BlockingQueue<JSONObject>
    ~ transactionBlockingQueueSec : BlockingQueue<JSONObject>
    ~ transactionBlockingQueueTer : BlockingQueue<JSONObject>
    
  }
  class QuorumStorage {
    ~ altruistList : List<Integer>
    + currentmembersinsideurquorum : int {static}
    + effectiveUtilitarianScore : Map<Integer, Map<Integer, Double>>
    ~ fairAltruistList : List<Integer>
    ~ idealAltruistList : List<Integer>
    ~ interQuorumApprovals : int
    ~ intraQuorumApprovals : int
    + quorumInitialised : boolean {static}
    + quorumMessageMap : NavigableMap<Integer, QuorumMessage>
    + quorumid : int {static}
    + quorumindex : int {static}
    + totaleffectivemembers : int {static}
    + totalquorummembers : int {static}
    + utilitarianClassification : Map<Integer, Integer>
    ~ weakAltruistList : List<Integer>
    
  }
  class UtilitarianScoreStorage {
    + PeerUtilitarianBlockProposalScore : Map<Integer, Map<Integer, Double>>
    + PeerUtilitarianCommitScore : Map<Integer, Map<Integer, Double>>
    + PeerUtilitarianHeartBeatScore : Map<Integer, Map<Integer, Double>>
    + PeerUtilitarianMaliciousScore : Map<Integer, Map<Integer, Double>>
    + PeerUtilitarianMissedBlockProposalScore : Map<Integer, Map<Integer, Double>>
    + PeerUtilitarianMissedCommitScore : Map<Integer, Map<Integer, Double>>
    + PeerUtilitarianMissedHeartBeatScore : Map<Integer, Map<Integer, Double>>
    + interBlockTimeCoefficient : Map<Integer, Map<Integer, Double>>
  }
}

@enduml

PlantUML version 1.2022.7(Mon Aug 22 19:01:30 CEST 2022)
(GPL source distribution)
Java Runtime: OpenJDK Runtime Environment
JVM: OpenJDK 64-Bit Server VM
Default Encoding: UTF-8
Language: en
Country: US
--></g></svg>