<?xml version="1.0" encoding="UTF-8" standalone="no"?><svg xmlns="http://www.w3.org/2000/svg" xmlns:xlink="http://www.w3.org/1999/xlink" contentStyleType="text/css" height="559px" preserveAspectRatio="none" style="width:2030px;height:559px;background:#FFFFFF;" version="1.1" viewBox="0 0 2030 559" width="2030px" zoomAndPan="magnify"><defs/><g><!--MD5=[fd20ec58b7570fc6f3219eb9b2bb932a]
cluster org.renaultleat.consensus--><g id="cluster_org.renaultleat.consensus"><path d="M303.5,129 L512.5,129 A3.75,3.75 0 0 1 515,131.5 L522,151.2969 L793.5,151.2969 A2.5,2.5 0 0 1 796,153.7969 L796,333.5 A2.5,2.5 0 0 1 793.5,336 L303.5,336 A2.5,2.5 0 0 1 301,333.5 L301,131.5 A2.5,2.5 0 0 1 303.5,129 " fill="none" style="stroke:#000000;stroke-width:1.5;"/><line style="stroke:#000000;stroke-width:1.5;" x1="301" x2="522" y1="151.2969" y2="151.2969"/><text fill="#000000" font-family="sans-serif" font-size="14" font-weight="bold" lengthAdjust="spacing" textLength="208" x="305" y="143.9951">org.renaultleat.consensus</text></g><!--MD5=[eb3ee92a8381fbf23043ab7f94c29bda]
cluster org.renaultleat.network--><g id="cluster_org.renaultleat.network"><path d="M1522.5,129 L1711.5,129 A3.75,3.75 0 0 1 1714,131.5 L1721,151.2969 L1910.5,151.2969 A2.5,2.5 0 0 1 1913,153.7969 L1913,333.5 A2.5,2.5 0 0 1 1910.5,336 L1522.5,336 A2.5,2.5 0 0 1 1520,333.5 L1520,131.5 A2.5,2.5 0 0 1 1522.5,129 " fill="none" style="stroke:#000000;stroke-width:1.5;"/><line style="stroke:#000000;stroke-width:1.5;" x1="1520" x2="1721" y1="151.2969" y2="151.2969"/><text fill="#000000" font-family="sans-serif" font-size="14" font-weight="bold" lengthAdjust="spacing" textLength="188" x="1524" y="143.9951">org.renaultleat.network</text></g><!--MD5=[0adbbcd27650d988717e92397e83c1c7]
cluster org.renaultleat.properties--><g id="cluster_org.renaultleat.properties"><path d="M733.5,6 L939.5,6 A3.75,3.75 0 0 1 942,8.5 L949,28.2969 L1077.5,28.2969 A2.5,2.5 0 0 1 1080,30.7969 L1080,102.5 A2.5,2.5 0 0 1 1077.5,105 L733.5,105 A2.5,2.5 0 0 1 731,102.5 L731,8.5 A2.5,2.5 0 0 1 733.5,6 " fill="none" style="stroke:#000000;stroke-width:1.5;"/><line style="stroke:#000000;stroke-width:1.5;" x1="731" x2="949" y1="28.2969" y2="28.2969"/><text fill="#000000" font-family="sans-serif" font-size="14" font-weight="bold" lengthAdjust="spacing" textLength="205" x="735" y="20.9951">org.renaultleat.properties</text></g><!--MD5=[405c190b41cd6df70be34dd0e93c7f00]
cluster org.renaultleat.node--><g id="cluster_org.renaultleat.node"><path d="M666.5,453 L829.5,453 A3.75,3.75 0 0 1 832,455.5 L839,475.2969 L1195.5,475.2969 A2.5,2.5 0 0 1 1198,477.7969 L1198,549.5 A2.5,2.5 0 0 1 1195.5,552 L666.5,552 A2.5,2.5 0 0 1 664,549.5 L664,455.5 A2.5,2.5 0 0 1 666.5,453 " fill="none" style="stroke:#000000;stroke-width:1.5;"/><line style="stroke:#000000;stroke-width:1.5;" x1="664" x2="839" y1="475.2969" y2="475.2969"/><text fill="#000000" font-family="sans-serif" font-size="14" font-weight="bold" lengthAdjust="spacing" textLength="162" x="668" y="467.9951">org.renaultleat.node</text></g><!--MD5=[a16a3799a95c105a63f974298999c0eb]
cluster org.renaultleat.api--><g id="cluster_org.renaultleat.api"><path d="M8.5,6 L154.5,6 A3.75,3.75 0 0 1 157,8.5 L164,28.2969 L224.5,28.2969 A2.5,2.5 0 0 1 227,30.7969 L227,333.5 A2.5,2.5 0 0 1 224.5,336 L8.5,336 A2.5,2.5 0 0 1 6,333.5 L6,8.5 A2.5,2.5 0 0 1 8.5,6 " fill="none" style="stroke:#000000;stroke-width:1.5;"/><line style="stroke:#000000;stroke-width:1.5;" x1="6" x2="164" y1="28.2969" y2="28.2969"/><text fill="#000000" font-family="sans-serif" font-size="14" font-weight="bold" lengthAdjust="spacing" textLength="145" x="10" y="20.9951">org.renaultleat.api</text></g><!--MD5=[736b4f1b1392848c361634a8cbde24e7]
cluster org.renaultleat.crypto--><g id="cluster_org.renaultleat.crypto"><path d="M1346.5,6 L1520.5,6 A3.75,3.75 0 0 1 1523,8.5 L1530,28.2969 L1670.5,28.2969 A2.5,2.5 0 0 1 1673,30.7969 L1673,102.5 A2.5,2.5 0 0 1 1670.5,105 L1346.5,105 A2.5,2.5 0 0 1 1344,102.5 L1344,8.5 A2.5,2.5 0 0 1 1346.5,6 " fill="none" style="stroke:#000000;stroke-width:1.5;"/><line style="stroke:#000000;stroke-width:1.5;" x1="1344" x2="1530" y1="28.2969" y2="28.2969"/><text fill="#000000" font-family="sans-serif" font-size="14" font-weight="bold" lengthAdjust="spacing" textLength="173" x="1348" y="20.9951">org.renaultleat.crypto</text></g><!--MD5=[93bb0e3d2c9ea0f9e8ab02b5e20dcba2]
cluster org.renaultleat.chain--><g id="cluster_org.renaultleat.chain"><path d="M1224.5,237 L1389.5,237 A3.75,3.75 0 0 1 1392,239.5 L1399,259.2969 L1493.5,259.2969 A2.5,2.5 0 0 1 1496,261.7969 L1496,549.5 A2.5,2.5 0 0 1 1493.5,552 L1224.5,552 A2.5,2.5 0 0 1 1222,549.5 L1222,239.5 A2.5,2.5 0 0 1 1224.5,237 " fill="none" style="stroke:#000000;stroke-width:1.5;"/><line style="stroke:#000000;stroke-width:1.5;" x1="1222" x2="1399" y1="259.2969" y2="259.2969"/><text fill="#000000" font-family="sans-serif" font-size="14" font-weight="bold" lengthAdjust="spacing" textLength="164" x="1226" y="251.9951">org.renaultleat.chain</text></g><!--MD5=[783c5a55039a6aaff3586e7a5f91c2eb]
class BFTMessageHandler--><g id="elem_BFTMessageHandler"><rect codeLine="2" fill="#F1F1F1" height="48" id="BFTMessageHandler" rx="2.5" ry="2.5" style="stroke:#181818;stroke-width:0.5;" width="175" x="604.5" y="164"/><ellipse cx="619.5" cy="180" fill="#ADD1B2" rx="11" ry="11" style="stroke:#181818;stroke-width:1.0;"/><path d="M622.4688,185.6406 Q621.8906,185.9375 621.25,186.0781 Q620.6094,186.2344 619.9063,186.2344 Q617.4063,186.2344 616.0781,184.5938 Q614.7656,182.9375 614.7656,179.8125 Q614.7656,176.6875 616.0781,175.0313 Q617.4063,173.375 619.9063,173.375 Q620.6094,173.375 621.25,173.5313 Q621.9063,173.6875 622.4688,173.9844 L622.4688,176.7031 Q621.8438,176.125 621.25,175.8594 Q620.6563,175.5781 620.0313,175.5781 Q618.6875,175.5781 618,176.6563 Q617.3125,177.7188 617.3125,179.8125 Q617.3125,181.9063 618,182.9844 Q618.6875,184.0469 620.0313,184.0469 Q620.6563,184.0469 621.25,183.7813 Q621.8438,183.5 622.4688,182.9219 L622.4688,185.6406 Z " fill="#000000"/><text fill="#000000" font-family="sans-serif" font-size="14" lengthAdjust="spacing" textLength="143" x="633.5" y="184.8467">BFTMessageHandler</text><line style="stroke:#181818;stroke-width:0.5;" x1="605.5" x2="778.5" y1="196" y2="196"/><line style="stroke:#181818;stroke-width:0.5;" x1="605.5" x2="778.5" y1="204" y2="204"/></g><!--MD5=[f2af29731e4f0888f8dde78e6ea58f79]
class BFTMessagePool--><g id="elem_BFTMessagePool"><rect codeLine="5" fill="#F1F1F1" height="48" id="BFTMessagePool" rx="2.5" ry="2.5" style="stroke:#181818;stroke-width:0.5;" width="152" x="486" y="272"/><ellipse cx="501" cy="288" fill="#ADD1B2" rx="11" ry="11" style="stroke:#181818;stroke-width:1.0;"/><path d="M503.9688,293.6406 Q503.3906,293.9375 502.75,294.0781 Q502.1094,294.2344 501.4063,294.2344 Q498.9063,294.2344 497.5781,292.5938 Q496.2656,290.9375 496.2656,287.8125 Q496.2656,284.6875 497.5781,283.0313 Q498.9063,281.375 501.4063,281.375 Q502.1094,281.375 502.75,281.5313 Q503.4063,281.6875 503.9688,281.9844 L503.9688,284.7031 Q503.3438,284.125 502.75,283.8594 Q502.1563,283.5781 501.5313,283.5781 Q500.1875,283.5781 499.5,284.6563 Q498.8125,285.7188 498.8125,287.8125 Q498.8125,289.9063 499.5,290.9844 Q500.1875,292.0469 501.5313,292.0469 Q502.1563,292.0469 502.75,291.7813 Q503.3438,291.5 503.9688,290.9219 L503.9688,293.6406 Z " fill="#000000"/><text fill="#000000" font-family="sans-serif" font-size="14" lengthAdjust="spacing" textLength="120" x="515" y="292.8467">BFTMessagePool</text><line style="stroke:#181818;stroke-width:0.5;" x1="487" x2="637" y1="304" y2="304"/><line style="stroke:#181818;stroke-width:0.5;" x1="487" x2="637" y1="312" y2="312"/></g><!--MD5=[bea5b0d46523efab5ea1c1d339f396f0]
class Message--><g id="elem_Message"><rect codeLine="8" fill="#F1F1F1" height="48" id="Message" rx="2.5" ry="2.5" style="stroke:#181818;stroke-width:0.5;" width="95" x="474.5" y="164"/><ellipse cx="489.5" cy="180" fill="#ADD1B2" rx="11" ry="11" style="stroke:#181818;stroke-width:1.0;"/><path d="M492.4688,185.6406 Q491.8906,185.9375 491.25,186.0781 Q490.6094,186.2344 489.9063,186.2344 Q487.4063,186.2344 486.0781,184.5938 Q484.7656,182.9375 484.7656,179.8125 Q484.7656,176.6875 486.0781,175.0313 Q487.4063,173.375 489.9063,173.375 Q490.6094,173.375 491.25,173.5313 Q491.9063,173.6875 492.4688,173.9844 L492.4688,176.7031 Q491.8438,176.125 491.25,175.8594 Q490.6563,175.5781 490.0313,175.5781 Q488.6875,175.5781 488,176.6563 Q487.3125,177.7188 487.3125,179.8125 Q487.3125,181.9063 488,182.9844 Q488.6875,184.0469 490.0313,184.0469 Q490.6563,184.0469 491.25,183.7813 Q491.8438,183.5 492.4688,182.9219 L492.4688,185.6406 Z " fill="#000000"/><text fill="#000000" font-family="sans-serif" font-size="14" lengthAdjust="spacing" textLength="63" x="503.5" y="184.8467">Message</text><line style="stroke:#181818;stroke-width:0.5;" x1="475.5" x2="568.5" y1="196" y2="196"/><line style="stroke:#181818;stroke-width:0.5;" x1="475.5" x2="568.5" y1="204" y2="204"/></g><!--MD5=[53137ec93420175360498e8c70990a98]
class Synchronizer--><g id="elem_Synchronizer"><rect codeLine="11" fill="#F1F1F1" height="48" id="Synchronizer" rx="2.5" ry="2.5" style="stroke:#181818;stroke-width:0.5;" width="122" x="317" y="164"/><ellipse cx="332" cy="180" fill="#ADD1B2" rx="11" ry="11" style="stroke:#181818;stroke-width:1.0;"/><path d="M334.9688,185.6406 Q334.3906,185.9375 333.75,186.0781 Q333.1094,186.2344 332.4063,186.2344 Q329.9063,186.2344 328.5781,184.5938 Q327.2656,182.9375 327.2656,179.8125 Q327.2656,176.6875 328.5781,175.0313 Q329.9063,173.375 332.4063,173.375 Q333.1094,173.375 333.75,173.5313 Q334.4063,173.6875 334.9688,173.9844 L334.9688,176.7031 Q334.3438,176.125 333.75,175.8594 Q333.1563,175.5781 332.5313,175.5781 Q331.1875,175.5781 330.5,176.6563 Q329.8125,177.7188 329.8125,179.8125 Q329.8125,181.9063 330.5,182.9844 Q331.1875,184.0469 332.5313,184.0469 Q333.1563,184.0469 333.75,183.7813 Q334.3438,183.5 334.9688,182.9219 L334.9688,185.6406 Z " fill="#000000"/><text fill="#000000" font-family="sans-serif" font-size="14" lengthAdjust="spacing" textLength="90" x="346" y="184.8467">Synchronizer</text><line style="stroke:#181818;stroke-width:0.5;" x1="318" x2="438" y1="196" y2="196"/><line style="stroke:#181818;stroke-width:0.5;" x1="318" x2="438" y1="204" y2="204"/></g><!--MD5=[e9d32aba5855cd2d02663dab53fb2d9c]
class NetworkTopologyGenerator--><g id="elem_NetworkTopologyGenerator"><rect codeLine="16" fill="#F1F1F1" height="48" id="NetworkTopologyGenerator" rx="2.5" ry="2.5" style="stroke:#181818;stroke-width:0.5;" width="223" x="1674.5" y="164"/><ellipse cx="1689.5" cy="180" fill="#ADD1B2" rx="11" ry="11" style="stroke:#181818;stroke-width:1.0;"/><path d="M1692.4688,185.6406 Q1691.8906,185.9375 1691.25,186.0781 Q1690.6094,186.2344 1689.9063,186.2344 Q1687.4063,186.2344 1686.0781,184.5938 Q1684.7656,182.9375 1684.7656,179.8125 Q1684.7656,176.6875 1686.0781,175.0313 Q1687.4063,173.375 1689.9063,173.375 Q1690.6094,173.375 1691.25,173.5313 Q1691.9063,173.6875 1692.4688,173.9844 L1692.4688,176.7031 Q1691.8438,176.125 1691.25,175.8594 Q1690.6563,175.5781 1690.0313,175.5781 Q1688.6875,175.5781 1688,176.6563 Q1687.3125,177.7188 1687.3125,179.8125 Q1687.3125,181.9063 1688,182.9844 Q1688.6875,184.0469 1690.0313,184.0469 Q1690.6563,184.0469 1691.25,183.7813 Q1691.8438,183.5 1692.4688,182.9219 L1692.4688,185.6406 Z " fill="#000000"/><text fill="#000000" font-family="sans-serif" font-size="14" lengthAdjust="spacing" textLength="191" x="1703.5" y="184.8467">NetworkTopologyGenerator</text><line style="stroke:#181818;stroke-width:0.5;" x1="1675.5" x2="1896.5" y1="196" y2="196"/><line style="stroke:#181818;stroke-width:0.5;" x1="1675.5" x2="1896.5" y1="204" y2="204"/></g><!--MD5=[518b6b5e0f80fd3873a9eea4dea400ea]
class P2PServer--><g id="elem_P2PServer"><rect codeLine="19" fill="#F1F1F1" height="48" id="P2PServer" rx="2.5" ry="2.5" style="stroke:#181818;stroke-width:0.5;" width="103" x="1536.5" y="164"/><ellipse cx="1551.5" cy="180" fill="#ADD1B2" rx="11" ry="11" style="stroke:#181818;stroke-width:1.0;"/><path d="M1554.4688,185.6406 Q1553.8906,185.9375 1553.25,186.0781 Q1552.6094,186.2344 1551.9063,186.2344 Q1549.4063,186.2344 1548.0781,184.5938 Q1546.7656,182.9375 1546.7656,179.8125 Q1546.7656,176.6875 1548.0781,175.0313 Q1549.4063,173.375 1551.9063,173.375 Q1552.6094,173.375 1553.25,173.5313 Q1553.9063,173.6875 1554.4688,173.9844 L1554.4688,176.7031 Q1553.8438,176.125 1553.25,175.8594 Q1552.6563,175.5781 1552.0313,175.5781 Q1550.6875,175.5781 1550,176.6563 Q1549.3125,177.7188 1549.3125,179.8125 Q1549.3125,181.9063 1550,182.9844 Q1550.6875,184.0469 1552.0313,184.0469 Q1552.6563,184.0469 1553.25,183.7813 Q1553.8438,183.5 1554.4688,182.9219 L1554.4688,185.6406 Z " fill="#000000"/><text fill="#000000" font-family="sans-serif" font-size="14" lengthAdjust="spacing" textLength="71" x="1565.5" y="184.8467">P2PServer</text><line style="stroke:#181818;stroke-width:0.5;" x1="1537.5" x2="1638.5" y1="196" y2="196"/><line style="stroke:#181818;stroke-width:0.5;" x1="1537.5" x2="1638.5" y1="204" y2="204"/></g><!--MD5=[03f89b227da79a2fe071c5bef7e7b2c4]
class QueueResource--><g id="elem_QueueResource"><rect codeLine="22" fill="#F1F1F1" height="48" id="QueueResource" rx="2.5" ry="2.5" style="stroke:#181818;stroke-width:0.5;" width="146" x="1695" y="272"/><ellipse cx="1710" cy="288" fill="#ADD1B2" rx="11" ry="11" style="stroke:#181818;stroke-width:1.0;"/><path d="M1712.9688,293.6406 Q1712.3906,293.9375 1711.75,294.0781 Q1711.1094,294.2344 1710.4063,294.2344 Q1707.9063,294.2344 1706.5781,292.5938 Q1705.2656,290.9375 1705.2656,287.8125 Q1705.2656,284.6875 1706.5781,283.0313 Q1707.9063,281.375 1710.4063,281.375 Q1711.1094,281.375 1711.75,281.5313 Q1712.4063,281.6875 1712.9688,281.9844 L1712.9688,284.7031 Q1712.3438,284.125 1711.75,283.8594 Q1711.1563,283.5781 1710.5313,283.5781 Q1709.1875,283.5781 1708.5,284.6563 Q1707.8125,285.7188 1707.8125,287.8125 Q1707.8125,289.9063 1708.5,290.9844 Q1709.1875,292.0469 1710.5313,292.0469 Q1711.1563,292.0469 1711.75,291.7813 Q1712.3438,291.5 1712.9688,290.9219 L1712.9688,293.6406 Z " fill="#000000"/><text fill="#000000" font-family="sans-serif" font-size="14" lengthAdjust="spacing" textLength="114" x="1724" y="292.8467">QueueResource</text><line style="stroke:#181818;stroke-width:0.5;" x1="1696" x2="1840" y1="304" y2="304"/><line style="stroke:#181818;stroke-width:0.5;" x1="1696" x2="1840" y1="312" y2="312"/></g><!--MD5=[d56245bddce73c857cdb7966439e0314]
class NodeDevProperty--><g id="elem_NodeDevProperty"><rect codeLine="27" fill="#F1F1F1" height="48" id="NodeDevProperty" rx="2.5" ry="2.5" style="stroke:#181818;stroke-width:0.5;" width="154" x="910" y="41"/><ellipse cx="925" cy="57" fill="#ADD1B2" rx="11" ry="11" style="stroke:#181818;stroke-width:1.0;"/><path d="M927.9688,62.6406 Q927.3906,62.9375 926.75,63.0781 Q926.1094,63.2344 925.4063,63.2344 Q922.9063,63.2344 921.5781,61.5938 Q920.2656,59.9375 920.2656,56.8125 Q920.2656,53.6875 921.5781,52.0313 Q922.9063,50.375 925.4063,50.375 Q926.1094,50.375 926.75,50.5313 Q927.4063,50.6875 927.9688,50.9844 L927.9688,53.7031 Q927.3438,53.125 926.75,52.8594 Q926.1563,52.5781 925.5313,52.5781 Q924.1875,52.5781 923.5,53.6563 Q922.8125,54.7188 922.8125,56.8125 Q922.8125,58.9063 923.5,59.9844 Q924.1875,61.0469 925.5313,61.0469 Q926.1563,61.0469 926.75,60.7813 Q927.3438,60.5 927.9688,59.9219 L927.9688,62.6406 Z " fill="#000000"/><text fill="#000000" font-family="sans-serif" font-size="14" lengthAdjust="spacing" textLength="122" x="939" y="61.8467">NodeDevProperty</text><line style="stroke:#181818;stroke-width:0.5;" x1="911" x2="1063" y1="73" y2="73"/><line style="stroke:#181818;stroke-width:0.5;" x1="911" x2="1063" y1="81" y2="81"/></g><!--MD5=[89a6ba7922817c3dda9c7b1866f2df6c]
class NodeProperty--><g id="elem_NodeProperty"><rect codeLine="30" fill="#F1F1F1" height="48" id="NodeProperty" rx="2.5" ry="2.5" style="stroke:#181818;stroke-width:0.5;" width="127" x="747.5" y="41"/><ellipse cx="762.5" cy="57" fill="#ADD1B2" rx="11" ry="11" style="stroke:#181818;stroke-width:1.0;"/><path d="M765.4688,62.6406 Q764.8906,62.9375 764.25,63.0781 Q763.6094,63.2344 762.9063,63.2344 Q760.4063,63.2344 759.0781,61.5938 Q757.7656,59.9375 757.7656,56.8125 Q757.7656,53.6875 759.0781,52.0313 Q760.4063,50.375 762.9063,50.375 Q763.6094,50.375 764.25,50.5313 Q764.9063,50.6875 765.4688,50.9844 L765.4688,53.7031 Q764.8438,53.125 764.25,52.8594 Q763.6563,52.5781 763.0313,52.5781 Q761.6875,52.5781 761,53.6563 Q760.3125,54.7188 760.3125,56.8125 Q760.3125,58.9063 761,59.9844 Q761.6875,61.0469 763.0313,61.0469 Q763.6563,61.0469 764.25,60.7813 Q764.8438,60.5 765.4688,59.9219 L765.4688,62.6406 Z " fill="#000000"/><text fill="#000000" font-family="sans-serif" font-size="14" lengthAdjust="spacing" textLength="95" x="776.5" y="61.8467">NodeProperty</text><line style="stroke:#181818;stroke-width:0.5;" x1="748.5" x2="873.5" y1="73" y2="73"/><line style="stroke:#181818;stroke-width:0.5;" x1="748.5" x2="873.5" y1="81" y2="81"/></g><!--MD5=[f59d84919a43af818e25d7c66b75ad04]
class NonValidator--><g id="elem_NonValidator"><rect codeLine="35" fill="#F1F1F1" height="48" id="NonValidator" rx="2.5" ry="2.5" style="stroke:#181818;stroke-width:0.5;" width="119" x="788.5" y="488"/><ellipse cx="803.5" cy="504" fill="#ADD1B2" rx="11" ry="11" style="stroke:#181818;stroke-width:1.0;"/><path d="M806.4688,509.6406 Q805.8906,509.9375 805.25,510.0781 Q804.6094,510.2344 803.9063,510.2344 Q801.4063,510.2344 800.0781,508.5938 Q798.7656,506.9375 798.7656,503.8125 Q798.7656,500.6875 800.0781,499.0313 Q801.4063,497.375 803.9063,497.375 Q804.6094,497.375 805.25,497.5313 Q805.9063,497.6875 806.4688,497.9844 L806.4688,500.7031 Q805.8438,500.125 805.25,499.8594 Q804.6563,499.5781 804.0313,499.5781 Q802.6875,499.5781 802,500.6563 Q801.3125,501.7188 801.3125,503.8125 Q801.3125,505.9063 802,506.9844 Q802.6875,508.0469 804.0313,508.0469 Q804.6563,508.0469 805.25,507.7813 Q805.8438,507.5 806.4688,506.9219 L806.4688,509.6406 Z " fill="#000000"/><text fill="#000000" font-family="sans-serif" font-size="14" lengthAdjust="spacing" textLength="87" x="817.5" y="508.8467">NonValidator</text><line style="stroke:#181818;stroke-width:0.5;" x1="789.5" x2="906.5" y1="520" y2="520"/><line style="stroke:#181818;stroke-width:0.5;" x1="789.5" x2="906.5" y1="528" y2="528"/></g><!--MD5=[4555bb1b0911a5adf28ce6dbe60fed2e]
class Transaction--><g id="elem_Transaction"><rect codeLine="38" fill="#F1F1F1" height="48" id="Transaction" rx="2.5" ry="2.5" style="stroke:#181818;stroke-width:0.5;" width="113" x="1068.5" y="488"/><ellipse cx="1083.5" cy="504" fill="#ADD1B2" rx="11" ry="11" style="stroke:#181818;stroke-width:1.0;"/><path d="M1086.4688,509.6406 Q1085.8906,509.9375 1085.25,510.0781 Q1084.6094,510.2344 1083.9063,510.2344 Q1081.4063,510.2344 1080.0781,508.5938 Q1078.7656,506.9375 1078.7656,503.8125 Q1078.7656,500.6875 1080.0781,499.0313 Q1081.4063,497.375 1083.9063,497.375 Q1084.6094,497.375 1085.25,497.5313 Q1085.9063,497.6875 1086.4688,497.9844 L1086.4688,500.7031 Q1085.8438,500.125 1085.25,499.8594 Q1084.6563,499.5781 1084.0313,499.5781 Q1082.6875,499.5781 1082,500.6563 Q1081.3125,501.7188 1081.3125,503.8125 Q1081.3125,505.9063 1082,506.9844 Q1082.6875,508.0469 1084.0313,508.0469 Q1084.6563,508.0469 1085.25,507.7813 Q1085.8438,507.5 1086.4688,506.9219 L1086.4688,509.6406 Z " fill="#000000"/><text fill="#000000" font-family="sans-serif" font-size="14" lengthAdjust="spacing" textLength="81" x="1097.5" y="508.8467">Transaction</text><line style="stroke:#181818;stroke-width:0.5;" x1="1069.5" x2="1180.5" y1="520" y2="520"/><line style="stroke:#181818;stroke-width:0.5;" x1="1069.5" x2="1180.5" y1="528" y2="528"/></g><!--MD5=[ca2d93c45117619035e2f39704bd7f41]
class Validator--><g id="elem_Validator"><rect codeLine="41" fill="#F1F1F1" height="48" id="Validator" rx="2.5" ry="2.5" style="stroke:#181818;stroke-width:0.5;" width="91" x="942.5" y="488"/><ellipse cx="957.5" cy="504" fill="#ADD1B2" rx="11" ry="11" style="stroke:#181818;stroke-width:1.0;"/><path d="M960.4688,509.6406 Q959.8906,509.9375 959.25,510.0781 Q958.6094,510.2344 957.9063,510.2344 Q955.4063,510.2344 954.0781,508.5938 Q952.7656,506.9375 952.7656,503.8125 Q952.7656,500.6875 954.0781,499.0313 Q955.4063,497.375 957.9063,497.375 Q958.6094,497.375 959.25,497.5313 Q959.9063,497.6875 960.4688,497.9844 L960.4688,500.7031 Q959.8438,500.125 959.25,499.8594 Q958.6563,499.5781 958.0313,499.5781 Q956.6875,499.5781 956,500.6563 Q955.3125,501.7188 955.3125,503.8125 Q955.3125,505.9063 956,506.9844 Q956.6875,508.0469 958.0313,508.0469 Q958.6563,508.0469 959.25,507.7813 Q959.8438,507.5 960.4688,506.9219 L960.4688,509.6406 Z " fill="#000000"/><text fill="#000000" font-family="sans-serif" font-size="14" lengthAdjust="spacing" textLength="59" x="971.5" y="508.8467">Validator</text><line style="stroke:#181818;stroke-width:0.5;" x1="943.5" x2="1032.5" y1="520" y2="520"/><line style="stroke:#181818;stroke-width:0.5;" x1="943.5" x2="1032.5" y1="528" y2="528"/></g><!--MD5=[9f070bf9f108c27faa2eb76515c78fb3]
class Wallet--><g id="elem_Wallet"><rect codeLine="44" fill="#F1F1F1" height="48" id="Wallet" rx="2.5" ry="2.5" style="stroke:#181818;stroke-width:0.5;" width="73" x="680.5" y="488"/><ellipse cx="695.5" cy="504" fill="#ADD1B2" rx="11" ry="11" style="stroke:#181818;stroke-width:1.0;"/><path d="M698.4688,509.6406 Q697.8906,509.9375 697.25,510.0781 Q696.6094,510.2344 695.9063,510.2344 Q693.4063,510.2344 692.0781,508.5938 Q690.7656,506.9375 690.7656,503.8125 Q690.7656,500.6875 692.0781,499.0313 Q693.4063,497.375 695.9063,497.375 Q696.6094,497.375 697.25,497.5313 Q697.9063,497.6875 698.4688,497.9844 L698.4688,500.7031 Q697.8438,500.125 697.25,499.8594 Q696.6563,499.5781 696.0313,499.5781 Q694.6875,499.5781 694,500.6563 Q693.3125,501.7188 693.3125,503.8125 Q693.3125,505.9063 694,506.9844 Q694.6875,508.0469 696.0313,508.0469 Q696.6563,508.0469 697.25,507.7813 Q697.8438,507.5 698.4688,506.9219 L698.4688,509.6406 Z " fill="#000000"/><text fill="#000000" font-family="sans-serif" font-size="14" lengthAdjust="spacing" textLength="41" x="709.5" y="508.8467">Wallet</text><line style="stroke:#181818;stroke-width:0.5;" x1="681.5" x2="752.5" y1="520" y2="520"/><line style="stroke:#181818;stroke-width:0.5;" x1="681.5" x2="752.5" y1="528" y2="528"/></g><!--MD5=[91dfbf3fdccf535f64556311969c93b8]
class Simulator_controller--><g id="elem_Simulator_controller"><rect codeLine="49" fill="#F1F1F1" height="48" id="Simulator_controller" rx="2.5" ry="2.5" style="stroke:#181818;stroke-width:0.5;" width="168" x="43" y="41"/><ellipse cx="58" cy="57" fill="#ADD1B2" rx="11" ry="11" style="stroke:#181818;stroke-width:1.0;"/><path d="M60.9688,62.6406 Q60.3906,62.9375 59.75,63.0781 Q59.1094,63.2344 58.4063,63.2344 Q55.9063,63.2344 54.5781,61.5938 Q53.2656,59.9375 53.2656,56.8125 Q53.2656,53.6875 54.5781,52.0313 Q55.9063,50.375 58.4063,50.375 Q59.1094,50.375 59.75,50.5313 Q60.4063,50.6875 60.9688,50.9844 L60.9688,53.7031 Q60.3438,53.125 59.75,52.8594 Q59.1563,52.5781 58.5313,52.5781 Q57.1875,52.5781 56.5,53.6563 Q55.8125,54.7188 55.8125,56.8125 Q55.8125,58.9063 56.5,59.9844 Q57.1875,61.0469 58.5313,61.0469 Q59.1563,61.0469 59.75,60.7813 Q60.3438,60.5 60.9688,59.9219 L60.9688,62.6406 Z " fill="#000000"/><text fill="#000000" font-family="sans-serif" font-size="14" lengthAdjust="spacing" textLength="136" x="72" y="61.8467">Simulator_controller</text><line style="stroke:#181818;stroke-width:0.5;" x1="44" x2="210" y1="73" y2="73"/><line style="stroke:#181818;stroke-width:0.5;" x1="44" x2="210" y1="81" y2="81"/></g><!--MD5=[2c0e6e5ec2734dd917b8398ef3c0e9b9]
class Simulator_result--><g id="elem_Simulator_result"><rect codeLine="52" fill="#F1F1F1" height="48" id="Simulator_result" rx="2.5" ry="2.5" style="stroke:#181818;stroke-width:0.5;" width="142" x="43" y="272"/><ellipse cx="58" cy="288" fill="#ADD1B2" rx="11" ry="11" style="stroke:#181818;stroke-width:1.0;"/><path d="M60.9688,293.6406 Q60.3906,293.9375 59.75,294.0781 Q59.1094,294.2344 58.4063,294.2344 Q55.9063,294.2344 54.5781,292.5938 Q53.2656,290.9375 53.2656,287.8125 Q53.2656,284.6875 54.5781,283.0313 Q55.9063,281.375 58.4063,281.375 Q59.1094,281.375 59.75,281.5313 Q60.4063,281.6875 60.9688,281.9844 L60.9688,284.7031 Q60.3438,284.125 59.75,283.8594 Q59.1563,283.5781 58.5313,283.5781 Q57.1875,283.5781 56.5,284.6563 Q55.8125,285.7188 55.8125,287.8125 Q55.8125,289.9063 56.5,290.9844 Q57.1875,292.0469 58.5313,292.0469 Q59.1563,292.0469 59.75,291.7813 Q60.3438,291.5 60.9688,290.9219 L60.9688,293.6406 Z " fill="#000000"/><text fill="#000000" font-family="sans-serif" font-size="14" lengthAdjust="spacing" textLength="110" x="72" y="292.8467">Simulator_result</text><line style="stroke:#181818;stroke-width:0.5;" x1="44" x2="184" y1="304" y2="304"/><line style="stroke:#181818;stroke-width:0.5;" x1="44" x2="184" y1="312" y2="312"/></g><!--MD5=[2d42af8ec271a0ac230335f19dd7311c]
class Simulator_service--><g id="elem_Simulator_service"><rect codeLine="55" fill="#F1F1F1" height="48" id="Simulator_service" rx="2.5" ry="2.5" style="stroke:#181818;stroke-width:0.5;" width="152" x="59" y="164"/><ellipse cx="74" cy="180" fill="#ADD1B2" rx="11" ry="11" style="stroke:#181818;stroke-width:1.0;"/><path d="M76.9688,185.6406 Q76.3906,185.9375 75.75,186.0781 Q75.1094,186.2344 74.4063,186.2344 Q71.9063,186.2344 70.5781,184.5938 Q69.2656,182.9375 69.2656,179.8125 Q69.2656,176.6875 70.5781,175.0313 Q71.9063,173.375 74.4063,173.375 Q75.1094,173.375 75.75,173.5313 Q76.4063,173.6875 76.9688,173.9844 L76.9688,176.7031 Q76.3438,176.125 75.75,175.8594 Q75.1563,175.5781 74.5313,175.5781 Q73.1875,175.5781 72.5,176.6563 Q71.8125,177.7188 71.8125,179.8125 Q71.8125,181.9063 72.5,182.9844 Q73.1875,184.0469 74.5313,184.0469 Q75.1563,184.0469 75.75,183.7813 Q76.3438,183.5 76.9688,182.9219 L76.9688,185.6406 Z " fill="#000000"/><text fill="#000000" font-family="sans-serif" font-size="14" lengthAdjust="spacing" textLength="120" x="88" y="184.8467">Simulator_service</text><line style="stroke:#181818;stroke-width:0.5;" x1="60" x2="210" y1="196" y2="196"/><line style="stroke:#181818;stroke-width:0.5;" x1="60" x2="210" y1="204" y2="204"/></g><!--MD5=[050cedbae5e3696284f88723d09e3f08]
class CryptoUtil--><g id="elem_CryptoUtil"><rect codeLine="60" fill="#F1F1F1" height="48" id="CryptoUtil" rx="2.5" ry="2.5" style="stroke:#181818;stroke-width:0.5;" width="98" x="1559" y="41"/><ellipse cx="1574" cy="57" fill="#ADD1B2" rx="11" ry="11" style="stroke:#181818;stroke-width:1.0;"/><path d="M1576.9688,62.6406 Q1576.3906,62.9375 1575.75,63.0781 Q1575.1094,63.2344 1574.4063,63.2344 Q1571.9063,63.2344 1570.5781,61.5938 Q1569.2656,59.9375 1569.2656,56.8125 Q1569.2656,53.6875 1570.5781,52.0313 Q1571.9063,50.375 1574.4063,50.375 Q1575.1094,50.375 1575.75,50.5313 Q1576.4063,50.6875 1576.9688,50.9844 L1576.9688,53.7031 Q1576.3438,53.125 1575.75,52.8594 Q1575.1563,52.5781 1574.5313,52.5781 Q1573.1875,52.5781 1572.5,53.6563 Q1571.8125,54.7188 1571.8125,56.8125 Q1571.8125,58.9063 1572.5,59.9844 Q1573.1875,61.0469 1574.5313,61.0469 Q1575.1563,61.0469 1575.75,60.7813 Q1576.3438,60.5 1576.9688,59.9219 L1576.9688,62.6406 Z " fill="#000000"/><text fill="#000000" font-family="sans-serif" font-size="14" lengthAdjust="spacing" textLength="66" x="1588" y="61.8467">CryptoUtil</text><line style="stroke:#181818;stroke-width:0.5;" x1="1560" x2="1656" y1="73" y2="73"/><line style="stroke:#181818;stroke-width:0.5;" x1="1560" x2="1656" y1="81" y2="81"/></g><!--MD5=[839dd9113f011ff64e71f446c2fc22ba]
class NodeKeyGenerator--><g id="elem_NodeKeyGenerator"><rect codeLine="63" fill="#F1F1F1" height="48" id="NodeKeyGenerator" rx="2.5" ry="2.5" style="stroke:#181818;stroke-width:0.5;" width="164" x="1360" y="41"/><ellipse cx="1375" cy="57" fill="#ADD1B2" rx="11" ry="11" style="stroke:#181818;stroke-width:1.0;"/><path d="M1377.9688,62.6406 Q1377.3906,62.9375 1376.75,63.0781 Q1376.1094,63.2344 1375.4063,63.2344 Q1372.9063,63.2344 1371.5781,61.5938 Q1370.2656,59.9375 1370.2656,56.8125 Q1370.2656,53.6875 1371.5781,52.0313 Q1372.9063,50.375 1375.4063,50.375 Q1376.1094,50.375 1376.75,50.5313 Q1377.4063,50.6875 1377.9688,50.9844 L1377.9688,53.7031 Q1377.3438,53.125 1376.75,52.8594 Q1376.1563,52.5781 1375.5313,52.5781 Q1374.1875,52.5781 1373.5,53.6563 Q1372.8125,54.7188 1372.8125,56.8125 Q1372.8125,58.9063 1373.5,59.9844 Q1374.1875,61.0469 1375.5313,61.0469 Q1376.1563,61.0469 1376.75,60.7813 Q1377.3438,60.5 1377.9688,59.9219 L1377.9688,62.6406 Z " fill="#000000"/><text fill="#000000" font-family="sans-serif" font-size="14" lengthAdjust="spacing" textLength="132" x="1389" y="61.8467">NodeKeyGenerator</text><line style="stroke:#181818;stroke-width:0.5;" x1="1361" x2="1523" y1="73" y2="73"/><line style="stroke:#181818;stroke-width:0.5;" x1="1361" x2="1523" y1="81" y2="81"/></g><!--MD5=[68a0c021ad4fbab63794e91c3c368f48]
class Block--><g id="elem_Block"><rect codeLine="68" fill="#F1F1F1" height="48" id="Block" rx="2.5" ry="2.5" style="stroke:#181818;stroke-width:0.5;" width="70" x="1256" y="488"/><ellipse cx="1271" cy="504" fill="#ADD1B2" rx="11" ry="11" style="stroke:#181818;stroke-width:1.0;"/><path d="M1273.9688,509.6406 Q1273.3906,509.9375 1272.75,510.0781 Q1272.1094,510.2344 1271.4063,510.2344 Q1268.9063,510.2344 1267.5781,508.5938 Q1266.2656,506.9375 1266.2656,503.8125 Q1266.2656,500.6875 1267.5781,499.0313 Q1268.9063,497.375 1271.4063,497.375 Q1272.1094,497.375 1272.75,497.5313 Q1273.4063,497.6875 1273.9688,497.9844 L1273.9688,500.7031 Q1273.3438,500.125 1272.75,499.8594 Q1272.1563,499.5781 1271.5313,499.5781 Q1270.1875,499.5781 1269.5,500.6563 Q1268.8125,501.7188 1268.8125,503.8125 Q1268.8125,505.9063 1269.5,506.9844 Q1270.1875,508.0469 1271.5313,508.0469 Q1272.1563,508.0469 1272.75,507.7813 Q1273.3438,507.5 1273.9688,506.9219 L1273.9688,509.6406 Z " fill="#000000"/><text fill="#000000" font-family="sans-serif" font-size="14" lengthAdjust="spacing" textLength="38" x="1285" y="508.8467">Block</text><line style="stroke:#181818;stroke-width:0.5;" x1="1257" x2="1325" y1="520" y2="520"/><line style="stroke:#181818;stroke-width:0.5;" x1="1257" x2="1325" y1="528" y2="528"/></g><!--MD5=[a190b5b17d5900f01628020fd9000353]
class BlockPool--><g id="elem_BlockPool"><rect codeLine="71" fill="#F1F1F1" height="48" id="BlockPool" rx="2.5" ry="2.5" style="stroke:#181818;stroke-width:0.5;" width="100" x="1380" y="380"/><ellipse cx="1395" cy="396" fill="#ADD1B2" rx="11" ry="11" style="stroke:#181818;stroke-width:1.0;"/><path d="M1397.9688,401.6406 Q1397.3906,401.9375 1396.75,402.0781 Q1396.1094,402.2344 1395.4063,402.2344 Q1392.9063,402.2344 1391.5781,400.5938 Q1390.2656,398.9375 1390.2656,395.8125 Q1390.2656,392.6875 1391.5781,391.0313 Q1392.9063,389.375 1395.4063,389.375 Q1396.1094,389.375 1396.75,389.5313 Q1397.4063,389.6875 1397.9688,389.9844 L1397.9688,392.7031 Q1397.3438,392.125 1396.75,391.8594 Q1396.1563,391.5781 1395.5313,391.5781 Q1394.1875,391.5781 1393.5,392.6563 Q1392.8125,393.7188 1392.8125,395.8125 Q1392.8125,397.9063 1393.5,398.9844 Q1394.1875,400.0469 1395.5313,400.0469 Q1396.1563,400.0469 1396.75,399.7813 Q1397.3438,399.5 1397.9688,398.9219 L1397.9688,401.6406 Z " fill="#000000"/><text fill="#000000" font-family="sans-serif" font-size="14" lengthAdjust="spacing" textLength="68" x="1409" y="400.8467">BlockPool</text><line style="stroke:#181818;stroke-width:0.5;" x1="1381" x2="1479" y1="412" y2="412"/><line style="stroke:#181818;stroke-width:0.5;" x1="1381" x2="1479" y1="420" y2="420"/></g><!--MD5=[04d4f9b1edda2793a31ab6271d9214d1]
class Blockchain--><g id="elem_Blockchain"><rect codeLine="74" fill="#F1F1F1" height="48" id="Blockchain" rx="2.5" ry="2.5" style="stroke:#181818;stroke-width:0.5;" width="107" x="1237.5" y="380"/><ellipse cx="1252.5" cy="396" fill="#ADD1B2" rx="11" ry="11" style="stroke:#181818;stroke-width:1.0;"/><path d="M1255.4688,401.6406 Q1254.8906,401.9375 1254.25,402.0781 Q1253.6094,402.2344 1252.9063,402.2344 Q1250.4063,402.2344 1249.0781,400.5938 Q1247.7656,398.9375 1247.7656,395.8125 Q1247.7656,392.6875 1249.0781,391.0313 Q1250.4063,389.375 1252.9063,389.375 Q1253.6094,389.375 1254.25,389.5313 Q1254.9063,389.6875 1255.4688,389.9844 L1255.4688,392.7031 Q1254.8438,392.125 1254.25,391.8594 Q1253.6563,391.5781 1253.0313,391.5781 Q1251.6875,391.5781 1251,392.6563 Q1250.3125,393.7188 1250.3125,395.8125 Q1250.3125,397.9063 1251,398.9844 Q1251.6875,400.0469 1253.0313,400.0469 Q1253.6563,400.0469 1254.25,399.7813 Q1254.8438,399.5 1255.4688,398.9219 L1255.4688,401.6406 Z " fill="#000000"/><text fill="#000000" font-family="sans-serif" font-size="14" lengthAdjust="spacing" textLength="75" x="1266.5" y="400.8467">Blockchain</text><line style="stroke:#181818;stroke-width:0.5;" x1="1238.5" x2="1343.5" y1="412" y2="412"/><line style="stroke:#181818;stroke-width:0.5;" x1="1238.5" x2="1343.5" y1="420" y2="420"/></g><!--MD5=[05ebf61412361dd348227f74f7358350]
class TransactionPool--><g id="elem_TransactionPool"><rect codeLine="77" fill="#F1F1F1" height="48" id="TransactionPool" rx="2.5" ry="2.5" style="stroke:#181818;stroke-width:0.5;" width="143" x="1312.5" y="272"/><ellipse cx="1327.5" cy="288" fill="#ADD1B2" rx="11" ry="11" style="stroke:#181818;stroke-width:1.0;"/><path d="M1330.4688,293.6406 Q1329.8906,293.9375 1329.25,294.0781 Q1328.6094,294.2344 1327.9063,294.2344 Q1325.4063,294.2344 1324.0781,292.5938 Q1322.7656,290.9375 1322.7656,287.8125 Q1322.7656,284.6875 1324.0781,283.0313 Q1325.4063,281.375 1327.9063,281.375 Q1328.6094,281.375 1329.25,281.5313 Q1329.9063,281.6875 1330.4688,281.9844 L1330.4688,284.7031 Q1329.8438,284.125 1329.25,283.8594 Q1328.6563,283.5781 1328.0313,283.5781 Q1326.6875,283.5781 1326,284.6563 Q1325.3125,285.7188 1325.3125,287.8125 Q1325.3125,289.9063 1326,290.9844 Q1326.6875,292.0469 1328.0313,292.0469 Q1328.6563,292.0469 1329.25,291.7813 Q1329.8438,291.5 1330.4688,290.9219 L1330.4688,293.6406 Z " fill="#000000"/><text fill="#000000" font-family="sans-serif" font-size="14" lengthAdjust="spacing" textLength="111" x="1341.5" y="292.8467">TransactionPool</text><line style="stroke:#181818;stroke-width:0.5;" x1="1313.5" x2="1454.5" y1="304" y2="304"/><line style="stroke:#181818;stroke-width:0.5;" x1="1313.5" x2="1454.5" y1="312" y2="312"/></g><!--MD5=[68bac6ee2c0e8db0f83aa54859cfa0cb]
link Simulator_controller to NonValidator--><g id="link_Simulator_controller_NonValidator"><path codeLine="81" d="M211.02,72.66 C327.69,81.87 545.36,98.97 731,113 C743.11,113.92 831.41,112.42 840,121 C938.47,219.41 883.96,411.24 858.66,483.01 " fill="none" id="Simulator_controller-to-NonValidator" style="stroke:#181818;stroke-width:1.0;"/><polygon fill="#181818" points="856.89,487.97,863.6867,480.8423,858.5735,483.2619,856.1538,478.1487,856.89,487.97" style="stroke:#181818;stroke-width:1.0;"/></g><!--MD5=[7b08add7bc6014ed0ff58065db2706fa]
link Blockchain to NonValidator--><g id="link_Blockchain_NonValidator"><path codeLine="82" d="M1237.47,410.44 C1137.57,420.65 932.09,441.93 925,445 C904.77,453.76 885.9,469.75 871.91,483.79 " fill="none" id="Blockchain-to-NonValidator" style="stroke:#181818;stroke-width:1.0;"/><polygon fill="#181818" points="868.1,487.69,877.2562,484.0618,871.5996,484.1189,871.5425,478.4624,868.1,487.69" style="stroke:#181818;stroke-width:1.0;"/></g><!--MD5=[a9fdfd3798678ff8d2b1ac602275ff65]
link Simulator_service to P2PServer--><g id="link_Simulator_service_P2PServer"><path codeLine="83" d="M178.23,163.96 C214.42,145.67 268.09,122.69 318.5,117 C355.21,112.86 946.62,114.84 983.5,117 C1185.99,128.85 1424.68,162.85 1531.44,179.12 " fill="none" id="Simulator_service-to-P2PServer" style="stroke:#181818;stroke-width:1.0;"/><polygon fill="#181818" points="1536.43,179.88,1528.1394,174.5634,1531.4876,179.1229,1526.9281,182.4712,1536.43,179.88" style="stroke:#181818;stroke-width:1.0;"/></g><!--MD5=[4c5d84732ac77395d9418d6fb9b988ea]
link Simulator_controller to BlockPool--><g id="link_Simulator_controller_BlockPool"><path codeLine="84" d="M211.41,74.48 C328.08,85.76 545.26,105.2 731,113 C739.78,113.37 1989.81,114.77 1996,121 C2023.91,149.08 1984.22,336.13 1976,344 C1941.03,377.51 1617.62,394.99 1485.67,400.78 " fill="none" id="Simulator_controller-to-BlockPool" style="stroke:#181818;stroke-width:1.0;"/><polygon fill="#181818" points="1480.29,401.01,1489.453,404.621,1485.2854,400.7959,1489.1105,396.6283,1480.29,401.01" style="stroke:#181818;stroke-width:1.0;"/></g><!--MD5=[d687c72a694ee2fc5112e6563dbfb0ba]
link P2PServer to QueueResource--><g id="link_P2PServer_QueueResource"><path codeLine="85" d="M1627.06,212 C1655.74,228.89 1694.7,251.84 1724.4,269.32 " fill="none" id="P2PServer-to-QueueResource" style="stroke:#181818;stroke-width:1.0;"/><polygon fill="#181818" points="1728.71,271.86,1722.9993,263.8358,1724.4062,269.3149,1718.9271,270.7219,1728.71,271.86" style="stroke:#181818;stroke-width:1.0;"/></g><!--MD5=[b056b54640e8d43cd87144fcc6474095]
link Block to Transaction--><g id="link_Block_Transaction"><path codeLine="86" d="M1255.58,512 C1232.69,512 1209.81,512 1186.93,512 " fill="none" id="Block-to-Transaction" style="stroke:#181818;stroke-width:1.0;"/><polygon fill="#181818" points="1181.74,512,1190.74,516,1186.74,512,1190.74,508,1181.74,512" style="stroke:#181818;stroke-width:1.0;"/></g><!--MD5=[be8fbdfa4a5f3788ea347a2362d685f9]
link TransactionPool to Blockchain--><g id="link_TransactionPool_Blockchain"><path codeLine="87" d="M1363.82,320 C1349.42,336.42 1329.99,358.56 1314.83,375.84 " fill="none" id="TransactionPool-to-Blockchain" style="stroke:#181818;stroke-width:1.0;"/><polygon fill="#181818" points="1311.46,379.68,1320.3957,375.5384,1314.7515,375.9162,1314.3737,370.272,1311.46,379.68" style="stroke:#181818;stroke-width:1.0;"/></g><!--MD5=[9efd460e18467a8ba9aa39c3ef2f59cf]
link BlockPool to Block--><g id="link_BlockPool_Block"><path codeLine="88" d="M1399.84,428 C1378.04,444.62 1348.54,467.12 1325.76,484.5 " fill="none" id="BlockPool-to-Block" style="stroke:#181818;stroke-width:1.0;"/><polygon fill="#181818" points="1321.58,487.68,1331.166,485.4198,1325.5611,484.6549,1326.3259,479.05,1321.58,487.68" style="stroke:#181818;stroke-width:1.0;"/></g><!--MD5=[3ff85b38ca4fa34f5ba37bcb2915c48a]
link Simulator_controller to TransactionPool--><g id="link_Simulator_controller_TransactionPool"><path codeLine="89" d="M211.44,73.86 C328.14,84.42 545.37,103.03 731,113 C790.94,116.22 942.53,107.43 1001,121 C1132.57,151.53 1273.93,228.76 1342.26,269.28 " fill="none" id="Simulator_controller-to-TransactionPool" style="stroke:#181818;stroke-width:1.0;"/><polygon fill="#181818" points="1346.66,271.9,1340.969,263.8618,1342.3625,269.3443,1336.88,270.7378,1346.66,271.9" style="stroke:#181818;stroke-width:1.0;"/></g><!--MD5=[ad0ab69aa77b1e823819b49fc0167a2a]
link BFTMessageHandler to BlockPool--><g id="link_BFTMessageHandler_BlockPool"><path codeLine="90" d="M779.57,195.41 C838.59,201.07 917.82,211.27 986,229 C1062.9,248.99 1274.11,336.83 1374.97,379.53 " fill="none" id="BFTMessageHandler-to-BlockPool" style="stroke:#181818;stroke-width:1.0;"/><polygon fill="#181818" points="1379.69,381.53,1372.9555,374.3435,1375.084,379.5846,1369.8428,381.7131,1379.69,381.53" style="stroke:#181818;stroke-width:1.0;"/></g><!--MD5=[d331f66c420f1372c55862b010e46600]
link Simulator_controller to QueueResource--><g id="link_Simulator_controller_QueueResource"><path codeLine="91" d="M211.41,74.47 C328.08,85.74 545.26,105.16 731,113 C739.22,113.35 1909.21,115.17 1915,121 C1943.5,149.69 1935.39,177.07 1915,212 C1899.64,238.32 1872.5,256.95 1845.69,269.8 " fill="none" id="Simulator_controller-to-QueueResource" style="stroke:#181818;stroke-width:1.0;"/><polygon fill="#181818" points="1841.04,271.97,1850.8872,271.7871,1845.5706,269.8548,1847.5028,264.5382,1841.04,271.97" style="stroke:#181818;stroke-width:1.0;"/></g><!--MD5=[199596c59386b1c7a007c649c0ffd149]
link Simulator_controller to Simulator_result--><g id="link_Simulator_controller_Simulator_result"><path codeLine="92" d="M72.83,89.15 C60.15,97.28 48.23,107.79 41,121 C21.58,156.48 26.73,174.16 41,212 C49.18,233.68 65.89,253.38 81.26,268.14 " fill="none" id="Simulator_controller-to-Simulator_result" style="stroke:#181818;stroke-width:1.0;"/><polygon fill="#181818" points="85.13,271.78,81.3177,262.6989,81.489,268.3532,75.8347,268.5245,85.13,271.78" style="stroke:#181818;stroke-width:1.0;"/></g><!--MD5=[2dac1093f1dd6677bf03cdeb3028c5aa]
link P2PServer to BFTMessagePool--><g id="link_P2PServer_BFTMessagePool"><path codeLine="93" d="M1536.2,191.38 C1436.21,196.26 1209.71,208.68 1020,229 C887.71,243.17 734.89,266.63 643.48,281.43 " fill="none" id="P2PServer-to-BFTMessagePool" style="stroke:#181818;stroke-width:1.0;"/><polygon fill="#181818" points="638.37,282.26,647.8935,284.7707,643.3058,281.4611,646.6153,276.8734,638.37,282.26" style="stroke:#181818;stroke-width:1.0;"/></g><!--MD5=[06ace2971e0dce2d8ce028d3e0fb94c9]
link Simulator_service to Wallet--><g id="link_Simulator_service_Wallet"><path codeLine="94" d="M178.63,212.15 C186.74,217.24 194.88,222.94 202,229 C289.91,303.86 270.77,367.32 369,428 C467.24,488.69 606.32,505 675.11,509.39 " fill="none" id="Simulator_service-to-Wallet" style="stroke:#181818;stroke-width:1.0;"/><polygon fill="#181818" points="680.35,509.71,671.6065,505.1767,675.359,509.4097,671.126,513.1622,680.35,509.71" style="stroke:#181818;stroke-width:1.0;"/></g><!--MD5=[55bafaefd9856c5d29408904b505daa9]
link BFTMessageHandler to NonValidator--><g id="link_BFTMessageHandler_NonValidator"><path codeLine="95" d="M604.44,208.68 C598.55,209.85 592.69,210.97 587,212 C560.93,216.73 486.35,208.98 469,229 C435.53,267.63 439.14,302.52 469,344 C551.7,458.86 647.88,375.21 771,445 C789.62,455.56 807.92,470.97 822.01,484.25 " fill="none" id="BFTMessageHandler-to-NonValidator" style="stroke:#181818;stroke-width:1.0;"/><polygon fill="#181818" points="825.86,487.93,822.1023,478.8262,822.2397,484.4814,816.5845,484.6187,825.86,487.93" style="stroke:#181818;stroke-width:1.0;"/></g><!--MD5=[429c2ffd36cde94f2b334063e7366d36]
link Simulator_service to Simulator_result--><g id="link_Simulator_service_Simulator_result"><path codeLine="96" d="M130.44,212 C127.27,228 123.02,249.45 119.64,266.53 " fill="none" id="Simulator_service-to-Simulator_result" style="stroke:#181818;stroke-width:1.0;"/><polygon fill="#181818" points="118.62,271.68,124.2938,263.6297,119.5923,266.7755,116.4466,262.074,118.62,271.68" style="stroke:#181818;stroke-width:1.0;"/></g><!--MD5=[72dcfc5098e8f03943a9da483ac61647]
link Simulator_controller to Validator--><g id="link_Simulator_controller_Validator"><path codeLine="97" d="M211.48,73.3 C328.21,83.22 545.48,101.09 731,113 C748.54,114.13 875.23,110.07 889,121 C1001.74,210.49 997.13,408.59 991.04,482.48 " fill="none" id="Simulator_controller-to-Validator" style="stroke:#181818;stroke-width:1.0;"/><polygon fill="#181818" points="990.6,487.58,995.3582,478.9568,991.0294,482.5985,987.3878,478.2697,990.6,487.58" style="stroke:#181818;stroke-width:1.0;"/></g><!--MD5=[d77153789e8097fc371e8b31fa1d44f6]
link BFTMessageHandler to BFTMessagePool--><g id="link_BFTMessageHandler_BFTMessagePool"><path codeLine="98" d="M663.79,212 C643.4,228.62 615.82,251.12 594.51,268.5 " fill="none" id="BFTMessageHandler-to-BFTMessagePool" style="stroke:#181818;stroke-width:1.0;"/><polygon fill="#181818" points="590.6,271.68,600.1027,269.092,594.4749,268.52,595.0468,262.8922,590.6,271.68" style="stroke:#181818;stroke-width:1.0;"/></g><!--MD5=[e00b5140ced1f664f8eedb78bcf2e288]
link Simulator_controller to Synchronizer--><g id="link_Simulator_controller_Synchronizer"><path codeLine="99" d="M211.2,88.76 C237.19,97.27 265.42,108.06 290,121 C310.56,131.82 331.46,147.27 347.73,160.5 " fill="none" id="Simulator_controller-to-Synchronizer" style="stroke:#181818;stroke-width:1.0;"/><polygon fill="#181818" points="351.76,163.81,347.3326,155.0124,347.8921,160.6415,342.263,161.201,351.76,163.81" style="stroke:#181818;stroke-width:1.0;"/></g><!--MD5=[9ae29a63597bc5ab1045b35c68a1fea2]
link P2PServer to NonValidator--><g id="link_P2PServer_NonValidator"><path codeLine="100" d="M1536.23,189.17 C1438.82,190.25 1232.47,196.46 1170,229 C1066.06,283.14 1097.7,368.06 997,428 C968.75,444.82 954.31,430.1 925,445 C905.63,454.84 887.04,470.53 872.99,484.14 " fill="none" id="P2PServer-to-NonValidator" style="stroke:#181818;stroke-width:1.0;"/><polygon fill="#181818" points="869.14,487.92,878.3536,484.4402,872.6969,484.406,872.7312,478.7492,869.14,487.92" style="stroke:#181818;stroke-width:1.0;"/></g><!--MD5=[c743def8757a43e02b08b7c4613200f8]
link BFTMessageHandler to Wallet--><g id="link_BFTMessageHandler_Wallet"><path codeLine="101" d="M604.49,209 C598.59,210.09 592.72,211.11 587,212 C567.15,215.1 420.52,214.14 407,229 C347.47,294.41 353.15,357.84 407,428 C439.59,470.46 597.89,495.94 674.84,506.01 " fill="none" id="BFTMessageHandler-to-Wallet" style="stroke:#181818;stroke-width:1.0;"/><polygon fill="#181818" points="680.23,506.71,671.8192,501.5858,675.2715,506.067,670.7903,509.5193,680.23,506.71" style="stroke:#181818;stroke-width:1.0;"/></g><!--MD5=[bcd5b33850f3d6d100e2529d25cbb895]
link Simulator_controller to BFTMessagePool--><g id="link_Simulator_controller_BFTMessagePool"><path codeLine="102" d="M178.86,89.13 C195.47,97.83 213.34,108.65 228,121 C267.44,154.23 257.56,182.7 300,212 C354.22,249.42 426.18,270.62 480.96,282.21 " fill="none" id="Simulator_controller-to-BFTMessagePool" style="stroke:#181818;stroke-width:1.0;"/><polygon fill="#181818" points="485.87,283.24,477.8676,277.4987,480.9738,282.2265,476.246,285.3327,485.87,283.24" style="stroke:#181818;stroke-width:1.0;"/></g><!--MD5=[3b5500d20ca44acaca41e7a41b7325b4]
link P2PServer to Validator--><g id="link_P2PServer_Validator"><path codeLine="103" d="M1536.21,188.35 C1447.28,188.25 1270.43,192.77 1222,229 C1145.27,286.4 1213.32,367.5 1139,428 C1108.11,453.15 1085.96,425.91 1051,445 C1033.86,454.36 1018.63,470 1007.43,483.71 " fill="none" id="P2PServer-to-Validator" style="stroke:#181818;stroke-width:1.0;"/><polygon fill="#181818" points="1004.09,487.89,1012.8317,483.3531,1007.21,483.9829,1006.5803,478.3612,1004.09,487.89" style="stroke:#181818;stroke-width:1.0;"/></g><!--MD5=[88325f38d7b93c5eb754bcfc6b77818c]
link Blockchain to Validator--><g id="link_Blockchain_Validator"><path codeLine="104" d="M1237.28,421.63 C1228.24,424.04 1218.9,426.27 1210,428 C1140.23,441.53 1114.76,413.6 1051,445 C1033.36,453.69 1018.01,469.47 1006.88,483.43 " fill="none" id="Blockchain-to-Validator" style="stroke:#181818;stroke-width:1.0;"/><polygon fill="#181818" points="1003.56,487.69,1012.2464,483.0481,1006.6327,483.7455,1005.9352,478.1319,1003.56,487.69" style="stroke:#181818;stroke-width:1.0;"/></g><!--MD5=[931577fb8f6badea6baff2b0334ed133]
link Simulator_controller to Blockchain--><g id="link_Simulator_controller_Blockchain"><path codeLine="105" d="M211.41,74.47 C328.08,85.75 545.26,105.17 731,113 C739.46,113.36 1944.03,114.99 1950,121 C2020.81,192.27 1991.03,280.72 1913,344 C1865.44,382.58 1423.17,368.6 1363,380 C1358.74,380.81 1354.37,381.79 1350.01,382.89 " fill="none" id="Simulator_controller-to-Blockchain" style="stroke:#181818;stroke-width:1.0;"/><polygon fill="#181818" points="1344.89,384.23,1354.6107,385.8135,1349.7261,382.9603,1352.5793,378.0757,1344.89,384.23" style="stroke:#181818;stroke-width:1.0;"/></g><!--MD5=[a296940997f0fcc15a4e762fa8176869]
link Simulator_controller to P2PServer--><g id="link_Simulator_controller_P2PServer"><path codeLine="106" d="M211.42,74.23 C328.1,85.23 545.3,104.33 731,113 C844.22,118.29 1128.24,109.48 1241,121 C1344.31,131.56 1462.77,157.02 1531.14,173.06 " fill="none" id="Simulator_controller-to-P2PServer" style="stroke:#181818;stroke-width:1.0;"/><polygon fill="#181818" points="1536.38,174.29,1528.5315,168.3401,1531.5122,173.148,1526.7043,176.1286,1536.38,174.29" style="stroke:#181818;stroke-width:1.0;"/></g><!--MD5=[0aaac363753ff9d073cf1a826eb26197]
link P2PServer to TransactionPool--><g id="link_P2PServer_TransactionPool"><path codeLine="107" d="M1536.29,207.27 C1520.21,213.54 1502.61,221 1487,229 C1464.16,240.7 1439.92,256.07 1420.71,269.03 " fill="none" id="P2PServer-to-TransactionPool" style="stroke:#181818;stroke-width:1.0;"/><polygon fill="#181818" points="1416.44,271.92,1426.1296,270.1559,1420.5714,269.1038,1421.6236,263.5456,1416.44,271.92" style="stroke:#181818;stroke-width:1.0;"/></g><!--MD5=[60ba72ffc4bc14716d83dc14e2bf56f1]
link P2PServer to Wallet--><g id="link_P2PServer_Wallet"><path codeLine="108" d="M1536.44,189.41 C1422.56,190.9 1152.97,197.72 1068,229 C914.83,285.39 889.65,332.92 771,445 C758.62,456.69 746.47,471.2 736.84,483.63 " fill="none" id="P2PServer-to-Wallet" style="stroke:#181818;stroke-width:1.0;"/><polygon fill="#181818" points="733.67,487.76,742.3189,483.0487,736.711,483.791,735.9686,478.1831,733.67,487.76" style="stroke:#181818;stroke-width:1.0;"/></g><!--MD5=[1e6eddd52c6cf1b738a44f557776aa12]
link BFTMessageHandler to Blockchain--><g id="link_BFTMessageHandler_Blockchain"><path codeLine="109" d="M756.39,212 C873.55,253.86 1119.86,341.86 1232.52,382.11 " fill="none" id="BFTMessageHandler-to-Blockchain" style="stroke:#181818;stroke-width:1.0;"/><polygon fill="#181818" points="1237.45,383.87,1230.3288,377.0664,1232.7436,382.182,1227.628,384.5967,1237.45,383.87" style="stroke:#181818;stroke-width:1.0;"/></g><!--MD5=[79d52477a448923d8a24e4447cd3b77a]
link P2PServer to BlockPool--><g id="link_P2PServer_BlockPool"><path codeLine="110" d="M1586.1,212.06 C1582.31,244.79 1571.17,305.05 1539,344 C1524.85,361.13 1504.38,374.04 1485,383.35 " fill="none" id="P2PServer-to-BlockPool" style="stroke:#181818;stroke-width:1.0;"/><polygon fill="#181818" points="1480.1,385.63,1489.9472,385.4471,1484.6306,383.5148,1486.5628,378.1982,1480.1,385.63" style="stroke:#181818;stroke-width:1.0;"/></g><!--MD5=[4a297f1c7ed50c52562c5f8e39829e5f]
link Simulator_controller to Wallet--><g id="link_Simulator_controller_Wallet"><path codeLine="111" d="M211.34,72.2 C390.07,85.43 791.09,115.67 796,121 C891.95,225.16 783.57,412.59 736.58,483.13 " fill="none" id="Simulator_controller-to-Wallet" style="stroke:#181818;stroke-width:1.0;"/><polygon fill="#181818" points="733.58,487.61,741.913,482.3601,736.3634,483.4563,735.2672,477.9067,733.58,487.61" style="stroke:#181818;stroke-width:1.0;"/></g><!--MD5=[6071033f747abb5f1fc861b4f2600082]
link BFTMessageHandler to TransactionPool--><g id="link_BFTMessageHandler_TransactionPool"><path codeLine="112" d="M779.76,192.42 C933.22,198.78 1238.5,213.19 1285,229 C1310.09,237.53 1334.9,254.09 1353.4,268.48 " fill="none" id="BFTMessageHandler-to-TransactionPool" style="stroke:#181818;stroke-width:1.0;"/><polygon fill="#181818" points="1357.49,271.71,1352.918,262.9866,1353.5704,268.6058,1347.9512,269.2581,1357.49,271.71" style="stroke:#181818;stroke-width:1.0;"/></g><!--MD5=[007288eb18ff433c8bf7da257c9f74d7]
link Blockchain to Block--><g id="link_Blockchain_Block"><path codeLine="113" d="M1291,428 C1291,444 1291,465.45 1291,482.53 " fill="none" id="Blockchain-to-Block" style="stroke:#181818;stroke-width:1.0;"/><polygon fill="#181818" points="1291,487.68,1295,478.68,1291,482.68,1287,478.68,1291,487.68" style="stroke:#181818;stroke-width:1.0;"/></g><!--MD5=[c67c2435f0e34c81df2bf433ff5af189]
link Simulator_controller to Simulator_service--><g id="link_Simulator_controller_Simulator_service"><path codeLine="114" d="M128.52,89.04 C129.83,108.77 131.71,137.24 133.11,158.41 " fill="none" id="Simulator_controller-to-Simulator_service" style="stroke:#181818;stroke-width:1.0;"/><polygon fill="#181818" points="133.45,163.63,136.8495,154.3864,133.1212,158.6408,128.8668,154.9125,133.45,163.63" style="stroke:#181818;stroke-width:1.0;"/></g><!--MD5=[ff7c132bfbf7714b9ab31c8f4b2d4d07]
link P2PServer to Blockchain--><g id="link_P2PServer_Blockchain"><path codeLine="115" d="M1552.77,212.19 C1546.42,217.28 1540.18,222.96 1535,229 C1497.18,273.06 1517.6,306.82 1473,344 C1471.74,345.05 1402.37,367.39 1349.65,384.27 " fill="none" id="P2PServer-to-Blockchain" style="stroke:#181818;stroke-width:1.0;"/><polygon fill="#181818" points="1344.6,385.88,1354.3913,386.9435,1349.3616,384.3546,1351.9506,379.3249,1344.6,385.88" style="stroke:#181818;stroke-width:1.0;"/></g><!--MD5=[5a9bb036856ac6b1e8f95d336bedffaf]
link BFTMessageHandler to Validator--><g id="link_BFTMessageHandler_Validator"><path codeLine="116" d="M704.82,212.1 C723.07,243.83 758.69,301.76 798,344 C847.13,396.8 871.76,396.36 925,445 C938.46,457.3 952.55,471.88 963.99,484.2 " fill="none" id="BFTMessageHandler-to-Validator" style="stroke:#181818;stroke-width:1.0;"/><polygon fill="#181818" points="967.45,487.95,964.2892,478.6221,964.0604,484.2743,958.4082,484.0455,967.45,487.95" style="stroke:#181818;stroke-width:1.0;"/></g><!--MD5=[a94f769b289851caa21a8865d8ff2a79]
@startuml
package org.renaultleat.consensus {
  class BFTMessageHandler {

  }
  class BFTMessagePool {
 
  }
  class Message {
   
  }
  class Synchronizer {
   
  }
}
package org.renaultleat.network {
  class NetworkTopologyGenerator {
   
  }
  class P2PServer {
   
  }
  class QueueResource {
   
  }
}
package org.renaultleat.properties {
  class NodeDevProperty {
  
  }
  class NodeProperty {
   
  }
}
package org.renaultleat.node {
  class NonValidator {
  
  }
  class Transaction {
   
  }
  class Validator {
  
  }
  class Wallet {
   
  }
}
package org.renaultleat.api {
  class Simulator_controller {
  
  }
  class Simulator_result {
  
  }
  class Simulator_service {
   
  }
}
package org.renaultleat.crypto {
  class CryptoUtil {
   
  }
  class NodeKeyGenerator {
   
  }
}
package org.renaultleat.chain {
  class Block {
   
  }
  class BlockPool {
    
  }
  class Blockchain {
  
  }
  class TransactionPool {
   
  }
}
Simulator_controller - ->   NonValidator
Blockchain - ->   NonValidator
Simulator_service - ->  P2PServer
Simulator_controller - ->  BlockPool
P2PServer - ->  QueueResource
Block - ->  Transaction
TransactionPool - ->  Blockchain
BlockPool - ->  Block
Simulator_controller - ->  TransactionPool
BFTMessageHandler - ->  BlockPool
Simulator_controller - ->  QueueResource
Simulator_controller - ->  Simulator_result
P2PServer - ->  BFTMessagePool
Simulator_service - ->  Wallet
BFTMessageHandler - ->  NonValidator
Simulator_service - ->  Simulator_result
Simulator_controller - ->  Validator
BFTMessageHandler - -> BFTMessagePool
Simulator_controller - ->  Synchronizer
P2PServer - ->  NonValidator
BFTMessageHandler - ->  Wallet
Simulator_controller - ->  BFTMessagePool
P2PServer - ->  Validator
Blockchain - ->  Validator
Simulator_controller - ->  Blockchain
Simulator_controller - ->  P2PServer
P2PServer - ->  TransactionPool
P2PServer - ->  Wallet
BFTMessageHandler - ->  Blockchain
P2PServer - ->  BlockPool
Simulator_controller - ->  Wallet
BFTMessageHandler - ->  TransactionPool
Blockchain - ->  Block
Simulator_controller - ->  Simulator_service
P2PServer - ->  Blockchain
BFTMessageHandler - ->  Validator
@enduml

PlantUML version 1.2022.7(Mon Aug 22 19:01:30 CEST 2022)
(GPL source distribution)
Java Runtime: OpenJDK Runtime Environment
JVM: OpenJDK 64-Bit Server VM
Default Encoding: UTF-8
Language: en
Country: US
--></g></svg>